<?xml version="1.0" encoding="UTF-8" standalone="no"?>
<!-- Created with Inkscape (http://www.inkscape.org/) -->

<svg
   version="1.1"
   id="svg1"
   width="1247.1017"
   height="529.47961"
   viewBox="0 0 1247.1017 529.47961"
   sodipodi:docname="scrumm_logo.svg"
   inkscape:version="1.4.2 (ebf0e940, 2025-05-08)"
   xmlns:inkscape="http://www.inkscape.org/namespaces/inkscape"
   xmlns:sodipodi="http://sodipodi.sourceforge.net/DTD/sodipodi-0.dtd"
   xmlns="http://www.w3.org/2000/svg"
   xmlns:svg="http://www.w3.org/2000/svg">
  <sodipodi:namedview
     id="namedview1"
     pagecolor="#ffffff"
     bordercolor="#000000"
     borderopacity="0.25"
     inkscape:showpageshadow="2"
     inkscape:pageopacity="0.0"
     inkscape:pagecheckerboard="0"
     inkscape:deskcolor="#d1d1d1"
     inkscape:zoom="0.7729923"
     inkscape:cx="623.55084"
     inkscape:cy="264.55632"
     inkscape:window-width="1512"
     inkscape:window-height="900"
     inkscape:window-x="0"
     inkscape:window-y="38"
     inkscape:window-maximized="0"
     inkscape:current-layer="svg1" />
  <defs
     id="defs1" />
  <g
     id="g1"
     transform="translate(-87.377212,-119.1198)">
    <g
       id="g3036"
       style="display:inline">
      <path
         style="fill:#007eff;fill-opacity:1;stroke:#000000;stroke-opacity:1;stroke-width:3.5;stroke-dasharray:none"
         d="m 592.13012,315.13063 c -1.39464,-5.44159 -4.9832,-9.48625 -9.95394,-11.21906 -1.79689,-0.6264 -3.10599,-1.62213 -2.90912,-2.21274 0.19687,-0.59061 1.67981,-1.49817 3.29544,-2.01682 5.45695,-1.75177 8.63773,-5.90193 9.97122,-13.01008 0.39245,-2.0919 1.20172,-3.59345 1.82478,-3.38576 0.61577,0.20525 1.73376,2.58734 2.48442,5.29351 0.75066,2.70618 2.33059,5.98837 3.51096,7.29377 1.18037,1.3054 3.94612,3.15087 6.14612,4.10106 l 4,1.72762 -5.06299,2.57101 c -5.03649,2.55756 -6.2316,4.20826 -9.39531,12.97686 -0.54571,1.5125 -1.36826,2.75 -1.8279,2.75 -0.45964,0 -1.39729,-2.19122 -2.08368,-4.86937 z"
         id="path3008" />
      <path
         style="fill:#007eff;fill-opacity:1;stroke:#000000;stroke-opacity:1;stroke-width:3.5;stroke-dasharray:none"
         d="m 1260.9981,352.49507 c -0.5489,-1.4439 -0.9981,-2.96753 -0.9981,-3.38586 0,-1.17212 -4.4805,-5.10921 -5.8145,-5.10921 -2.2351,0 -1.1082,-2.50017 2.0283,-4.5 1.8131,-1.15606 3.6278,-3.4769 4.3007,-5.5 0.6401,-1.925 1.5336,-3.5 1.9855,-3.5 0.4519,0 1.3484,1.575 1.9922,3.5 0.6776,2.02566 2.592,4.46414 4.5447,5.78882 1.8558,1.25885 3.569,2.48376 3.8073,2.72202 0.2382,0.23826 -0.6417,0.84415 -1.9555,1.34642 -3.1484,1.20367 -5.5717,3.997 -6.4216,7.40219 -0.3787,1.5177 -1.0897,3.00727 -1.5798,3.31017 -0.4901,0.3029 -1.3402,-0.63064 -1.8892,-2.07455 z"
         id="path3007" />
      <path
         style="fill:#007eff;fill-opacity:1;stroke:#000000;stroke-opacity:1;stroke-width:3.5;stroke-dasharray:none"
         d="m 1117.1015,359.90213 c -0.5468,-1.32117 -1.6836,-4.87713 -2.5262,-7.90213 -0.8426,-3.025 -2.5609,-6.77084 -3.8186,-8.32409 -1.3606,-1.68041 -4.5079,-3.57608 -7.7716,-4.68097 -3.0168,-1.02128 -5.4851,-2.40077 -5.4851,-3.06553 0,-0.66476 1.8,-1.74304 4,-2.39617 2.2,-0.65314 5.0381,-1.82781 6.3068,-2.61038 3.2986,-2.03459 6.0878,-6.95186 8.0341,-14.16357 0.929,-3.44261 2.0979,-6.25929 2.5975,-6.25929 0.4995,0 1.9623,3.46617 3.2506,7.70259 1.4911,4.90327 3.3361,8.67574 5.0767,10.38029 1.5039,1.47273 4.7386,3.45683 7.1882,4.4091 2.4496,0.95227 4.6246,2.2434 4.8332,2.86918 0.2085,0.62578 -0.4457,1.38662 -1.4539,1.69075 -1.0083,0.30412 -3.7714,1.5055 -6.1402,2.66973 -4.9434,2.42953 -8.4178,7.60174 -10.263,15.27836 -0.6611,2.75 -1.5692,5.40596 -2.0181,5.90213 -0.4578,0.50608 -1.2526,-0.15243 -1.8104,-1.5 z"
         id="path3006" />
      <path
         style="display:inline;fill:#007eff;fill-opacity:1;stroke:#000000;stroke-opacity:1;stroke-width:3.5;stroke-dasharray:none"
         d="m 584.63687,479.67333 c -0.76448,-1.82966 -2.68302,-4.28187 -4.26342,-5.44934 L 577.5,472.1013 l 3.63635,-3.02977 c 2,-1.66638 3.92107,-4.16418 4.26906,-5.55066 0.34798,-1.38648 0.96162,-2.51629 1.36364,-2.5107 0.40202,0.006 1.48423,1.80372 2.40491,3.99584 1.04001,2.47623 2.64955,4.35659 4.25,4.96508 1.41682,0.53867 2.57604,1.42899 2.57604,1.97848 0,0.54949 -1.31931,1.68131 -2.93181,2.51517 -1.75332,0.90667 -3.44193,2.92682 -4.20088,5.02568 -0.698,1.93027 -1.62265,3.50958 -2.05478,3.50958 -0.43213,0 -1.41118,-1.497 -2.17566,-3.32667 z"
         id="path3005" />
    </g>
    <g
       id="g3037"
       style="display:inline">
      <path
         style="display:inline;fill:#000000;fill-opacity:1;stroke:#000000;stroke-opacity:1"
         d="m 535.5,301.61328 c -11.28813,0.0465 -15.25509,0.9385 -25.5,5.72852 -2.475,1.15719 -7.91799,5.49085 -12.0957,9.63086 -5.26762,5.22007 -8.55614,9.51967 -10.72852,14.02734 -1.72291,3.575 -3.81741,9.18288 -4.6543,12.46094 -1.99095,7.7986 -1.95469,21.69996 0.0742,28.60742 2.43842,8.30167 7.3688,16.83836 12.95508,22.43164 2.77789,2.78136 10.74916,9.44234 17.71484,14.80078 6.96568,5.35844 13.82411,11.26055 15.24024,13.11719 1.41613,1.85664 3.00133,4.86017 3.52148,6.67383 1.26778,4.4205 -0.42984,10.47145 -3.50195,12.48437 -1.31785,0.8635 -3.6629,1.42356 -5.21094,1.2461 -2.6061,-0.29875 -2.79826,-0.61862 -2.59961,-4.32227 0.87356,-16.28676 0.9044,-15.96575 -1.96289,-20.29883 -1.51146,-2.28414 -3.8578,-4.8797 -5.21289,-5.76758 -3.45572,-2.26428 -9.29388,-2.84391 -14.55859,-1.44531 -6.10968,1.62306 -13.90669,9.66084 -17.07813,17.60547 -2.01092,5.03746 -2.3596,7.67007 -2.3789,17.90625 -0.0218,11.57974 0.0947,12.25309 3.375,19.25195 2.19943,4.6927 5.06468,8.81075 8.11718,11.66602 5.17091,4.83677 12.9923,9.19976 19.98438,11.14844 10.09471,2.81337 25.55705,0.87453 36.7168,-4.60547 3.59692,-1.76627 8.68419,-5.52209 12.07617,-8.91407 3.32041,-3.3204 7.45844,-8.89837 9.54297,-12.86523 2.02396,-3.85161 4.41244,-10.30506 5.30859,-14.3418 0.89614,-4.03673 1.73946,-7.47565 1.875,-7.64062 0,0 0.002,-0.002 0.002,-0.002 0.17642,-0.14896 3.00939,0.63329 6.33008,1.75195 3.34685,1.12747 8.46234,2.03558 11.36719,2.01758 2.90485,-0.0179 7.67985,-0.86063 10.61133,-1.87305 3.67656,-1.26974 5.43651,-1.49172 5.67383,-0.7168 0.18923,0.61787 0.53968,4.34214 0.77929,8.27735 0.31345,5.14772 1.07829,8.19286 2.72266,10.85351 3.31229,5.3594 7.36598,7.48428 14.29297,7.48828 3.20489,0.002 7.09742,-0.66582 8.69922,-1.49414 3.48793,-1.80368 7.59001,-6.97243 8.5332,-10.75195 0.37745,-1.5125 1.00784,-2.75 1.40234,-2.75 0.39451,0 1.8092,1.1684 3.14258,2.5957 3.34028,3.57568 9.67708,7.11878 14.2168,7.94922 7.86295,1.43836 17.33992,-4.96168 19.64648,-13.26758 0.57694,-2.07753 1.05169,-4.28319 1.05469,-4.90234 0.004,-0.74823 2.64081,-1.08697 7.86328,-1.00977 7.00077,0.10355 8.53173,-0.23273 14.04883,-3.07812 4.13031,-2.13017 6.30492,-2.7927 6.5293,-1.99024 0.18501,0.66168 0.8491,3.0955 1.47656,5.40821 0.62747,2.31272 2.34619,5.63715 3.81836,7.38672 1.47217,1.74957 4.14588,3.79471 5.9414,4.54492 4.71616,1.97054 10.98179,1.68637 15.20899,-0.68945 2.00933,-1.1293 4.65244,-3.51161 5.87305,-5.29297 1.2206,-1.78136 2.68242,-5.67961 3.24804,-8.66211 0.56563,-2.98251 1.35936,-5.72377 1.76367,-6.0918 0.40433,-0.368 2.75938,-0.38387 5.23438,-0.0352 l 4.5,0.63477 0.57812,9.11719 c 0.469,7.40829 1.07405,9.96798 3.23438,13.65429 1.82904,3.12102 4.00955,5.19084 6.98828,6.63282 4.71465,2.28232 10.95424,2.70238 15.38477,1.03711 1.54831,-0.58195 4.61445,-2.78206 6.81445,-4.89063 3.49673,-3.35141 4.72822,-3.89129 9.79102,-4.2793 9.26187,-0.70984 14.05293,-5.38792 15.99804,-15.62304 l 1.18555,-6.23438 5.51172,0.29297 5.51367,0.29297 0.66211,8.68555 c 0.36412,4.77684 0.97801,9.72684 1.36523,11 1.32978,4.37228 5.41556,8.62824 9.94336,10.35742 5.82083,2.22299 12.32891,1.51653 17.48633,-1.89649 3.81195,-2.52263 4.02753,-2.55027 7.72852,-1.0039 5.5316,2.31125 13.96783,1.29425 21.97656,-2.64844 7.90616,-3.89219 17.14099,-11.44164 22.07226,-18.04687 2.03104,-2.72049 3.96035,-4.94727 4.28711,-4.94727 0.32675,0 1.38308,1.78937 2.34766,3.97656 0.96477,2.1867 3.13396,4.95742 4.82031,6.15821 1.74313,1.24122 5.18116,2.38643 7.96875,2.65429 4.18019,0.40166 5.61683,0.0281 9.74024,-2.53515 l 4.83593,-3.00586 4.26954,2.86718 c 5.00321,3.3602 9.86471,4.87091 15.6875,4.87891 2.30504,0.003 4.47163,0.46362 4.8164,1.02148 0.34478,0.55786 2.37876,1.90787 4.51953,3 4.30909,2.19834 10.57194,2.5811 14.31641,0.875 2.0395,-0.92924 2.94026,-0.73998 5.51562,1.16407 1.99623,1.47587 4.9734,2.43263 8.4707,2.72265 6.9696,0.57797 11.9983,-1.71524 14.9297,-6.80859 1.9802,-3.44072 2.5923,-3.79101 7.2793,-4.17969 3.5217,-0.29205 6.1936,-1.24626 8.5722,-3.06054 l 3.4571,-2.63672 5.8574,2.95507 c 4.4646,2.252 7.2242,2.95313 11.6133,2.95313 4.4752,0 7.0388,-0.67348 11.5136,-3.02734 5.6845,-2.99026 5.7833,-3.00444 7.8516,-1.125 1.152,1.04685 3.0779,2.40861 4.2793,3.02734 3.0337,1.56248 10.8728,1.4077 14.1152,-0.2793 1.4851,-0.77274 3.7916,-2.57274 5.125,-4 1.3334,-1.42725 3.1613,-2.5957 4.0625,-2.5957 0.9012,0 2.9608,1.40531 4.5762,3.12305 3.445,3.66322 8.1368,5.87695 12.4551,5.87695 3.1995,0 8.2145,-2.12843 11.2207,-4.76367 1.574,-1.3798 2.0933,-1.28031 5.5,1.06836 2.0691,1.42644 5.9686,3.08434 8.666,3.68359 3.4876,0.77477 6.3776,0.78448 10.0059,0.0312 2.8062,-0.58257 6.3906,-1.90485 7.9648,-2.9375 2.7993,-1.83676 2.9536,-1.83674 6.9941,-0.002 2.2722,1.03177 5.4751,1.88634 7.1172,1.89844 1.6422,0.0121 5.3501,-1.17543 8.2422,-2.63868 4.8571,-2.45746 5.3946,-2.53765 7.0332,-1.05468 0.9758,0.88302 3.7908,2.52051 6.2559,3.63867 5.4543,2.47404 14.5086,2.71636 19.7637,0.52929 2.0448,-0.85103 5.6307,-3.41804 7.9667,-5.70507 l 4.2461,-4.15821 3.7539,3.59766 c 2.064,1.97975 5.7341,4.59198 8.1563,5.80469 3.758,1.8815 5.5182,2.13039 12,1.6914 4.1778,-0.28295 8.7896,-0.82204 10.248,-1.19726 2.1824,-0.5615 2.7772,-0.28587 3.3633,1.56054 1.1357,3.5784 8.4976,10.92619 13.4766,13.44922 2.5154,1.27466 7.2773,2.84984 10.582,3.5 4.3702,0.85979 7.5545,0.89663 11.6758,0.13477 3.1164,-0.5761 7.5613,-2.01395 9.877,-3.19531 2.3157,-1.18136 6.3493,-4.34408 8.9648,-7.0293 5.4013,-5.54531 8.3252,-12.27282 9.9844,-22.9668 0.8944,-5.76424 0.7939,-8.47884 -0.5703,-15.22656 -1.8147,-8.97584 -4.8815,-15.91932 -9.5137,-21.53906 -1.6457,-1.99645 -2.9922,-4.1529 -2.9922,-4.79297 0,-0.64006 1.0125,-1.42281 2.25,-1.74024 3.2983,-0.84607 7.7128,-5.34897 9.8418,-10.0371 1.0249,-2.25681 1.8747,-6.3842 1.8867,-9.17188 0.034,-7.85591 -2.5429,-15.00474 -7.25,-20.11133 -6.089,-6.60578 -10.6361,-8.6008 -20.7285,-9.0957 -6.9604,-0.34131 -9.5323,-0.0279 -14.2012,1.73242 -3.1597,1.19128 -7.9177,4.14295 -10.6718,6.61914 -2.7334,2.45758 -5.9464,6.48245 -7.1387,8.94531 -2.0327,4.19897 -2.4159,4.47852 -6.1758,4.47852 -2.2053,0 -5.5215,0.71702 -7.3691,1.59375 -3.2267,1.53117 -3.5772,1.48771 -8.8575,-1.0957 -4.495,-2.19919 -6.2559,-2.56115 -9.6582,-1.98633 -2.7054,0.45707 -5.5462,1.95498 -8.1211,4.28125 -3.9211,3.54246 -3.9855,3.56057 -6.6328,1.83789 -4.3855,-2.85377 -8.9558,-4.63953 -13.4433,-5.25195 -2.8661,-0.39113 -6.0823,0.048 -9.9727,1.36328 -3.1578,1.06757 -5.9176,1.76594 -6.1328,1.55078 -0.2151,-0.21516 0.025,-2.23674 0.5313,-4.49219 0.5068,-2.25544 0.6386,-5.9872 0.2929,-8.29297 -0.3458,-2.30577 -1.6112,-5.94212 -2.8105,-8.08008 -1.2131,-2.16274 -3.946,-4.88659 -6.1602,-6.14062 -4.3545,-2.46628 -11.2067,-3.00784 -14.7949,-1.16797 -3.313,1.69874 -8.666,7.01999 -10.4043,10.3418 -0.8523,1.62873 -1.8258,5.22873 -2.1641,8 L 1161.5,364.5 l -6.5,0.0586 c -7.6705,0.0684 -13.8624,2.51541 -19.6953,7.78516 l -3.9512,3.56836 -3.6152,-2.57227 c -4.083,-2.90513 -11.146,-4.08987 -15.4434,-2.59179 -2.1417,0.7466 -3.8288,0.59025 -6.8203,-0.62891 -2.186,-0.89085 -5.8821,-2.91298 -8.2129,-4.49414 -3.684,-2.49916 -4.9377,-2.81759 -9.5918,-2.43164 -3.198,0.26521 -6.5245,1.27536 -8.2617,2.50781 -2.3714,1.68232 -3.907,1.96695 -8.3164,1.53906 -4.0335,-0.39141 -6.2398,-0.0758 -8.6836,1.24024 -3.1822,1.71373 -3.3761,1.70362 -6.7109,-0.35742 -1.8885,-1.16716 -4.3658,-2.12305 -5.5059,-2.12305 -1.1401,0 -2.4042,-0.53512 -2.8086,-1.18945 -0.4044,-0.65433 -0.8103,-3.33559 -0.9023,-5.95899 -0.2227,-6.32797 -4.0813,-13.71244 -8.5235,-16.3125 -1.901,-1.11269 -5.707,-2.25212 -8.457,-2.53125 l -5,-0.50781 -0.5,-7 c -0.5767,-8.07378 -2.9151,-12.85221 -7.9512,-16.24609 -4.3358,-2.92186 -10.9385,-2.96934 -16.82224,-0.1211 -4.34738,2.10453 -4.47467,2.10818 -9.74023,0.31836 -4.49214,-1.52693 -5.95699,-1.62703 -9.27539,-0.63281 -2.16749,0.64939 -5.08684,2.08317 -6.48828,3.18555 -1.40144,1.10237 -3.47131,3.91464 -4.59961,6.25 -2.46054,5.09279 -4.10394,18.24009 -4.11524,32.92578 l -0.008,10.68164 -7.42188,3.56836 C 953.49609,374.39307 949.91767,376 949.625,376 c -0.29267,0 0.56778,-2.3625 1.91211,-5.25 5.31141,-11.40849 1.41147,-25.36704 -8.20899,-29.38672 C 941.53261,340.61306 938.35589,340 936.26758,340 c -2.08831,0 -5.47694,0.9 -7.5293,2 -2.05237,1.1 -4.10778,2 -4.56836,2 -0.46057,0 -2.55612,-2.49563 -4.65625,-5.54492 -2.10013,-3.04929 -5.94772,-7.45846 -8.55078,-9.79883 -11.74184,-10.55692 -30.15657,-16.16967 -41.06445,-12.51758 -5.10258,1.70841 -9.93608,5.70767 -11.54102,9.54883 -1.39354,3.33522 -1.54494,3.40608 -5.80273,2.76758 -2.40408,-0.36046 -5.77243,-0.34714 -7.48633,0.0293 -1.71391,0.37644 -4.47676,1.83042 -6.14063,3.23047 -3.34212,2.81221 -6.73519,8.98741 -9.38671,17.08594 -0.95455,2.9155 -2.19426,5.14749 -2.75391,4.96094 -0.55965,-0.18655 -1.83051,-2.48446 -2.82617,-5.10742 -0.99566,-2.62296 -2.37646,-5.45147 -3.06836,-6.28516 -0.69189,-0.83369 -3.05568,-2.43227 -5.25196,-3.55273 -2.97359,-1.51704 -5.2411,-1.91615 -8.88085,-1.56641 -2.79668,0.26872 -6.12657,1.38456 -7.78321,2.60937 -1.59245,1.17735 -3.33393,2.14063 -3.86914,2.14063 -0.53521,0 -1.28035,-1.0125 -1.65625,-2.25 -1.1757,-3.87054 -5.57414,-8.90283 -9.05078,-10.35547 -1.83484,-0.76664 -4.58898,-1.38515 -6.11914,-1.37305 -4.11788,0.0325 -10.87834,3.4333 -12.87109,6.47461 -0.96025,1.46553 -3.133,6.35299 -4.82813,10.85938 -1.69512,4.5064 -3.46398,8.40631 -3.93164,8.66797 -0.46766,0.26166 -1.68637,-1.72331 -2.70703,-4.41211 -1.02065,-2.6888 -2.8887,-6.00933 -4.15039,-7.37891 C 746.81239,338.99696 742.02414,337 737.24414,337 c -2.10137,0 -5.59677,0.90498 -7.76758,2.01172 l -3.94726,2.01367 -2.87891,-3.08203 c -1.58346,-1.6943 -3.98226,-3.49927 -5.33008,-4.01172 -3.25449,-1.23735 -8.53117,-1.18109 -12.00586,0.12891 -1.54831,0.58374 -4.25373,2.45098 -6.01367,4.14843 l -3.20117,3.08594 -3.53711,-3.10547 c -1.94534,-1.70803 -5.28131,-3.5761 -7.41406,-4.15039 -2.13275,-0.57429 -5.40169,-0.75845 -7.26367,-0.41015 -3.68423,0.68915 -9.88477,4.04263 -9.88477,5.3457 0,0.4463 -0.75046,1.09909 -1.66797,1.45117 -1.08865,0.41775 -2.73882,-0.3938 -4.75,-2.33789 -1.69499,-1.63846 -5.78203,-4.24092 -9.08203,-5.7832 -5.17812,-2.42003 -7.23282,-2.80469 -15,-2.80469 -10.09687,0 -16.67828,1.93239 -20.52344,6.02539 -1.27874,1.36115 -2.86422,2.47461 -3.52344,2.47461 -0.65921,0 -3.38225,-0.96606 -6.05078,-2.14648 -3.26841,-1.44577 -6.98554,-2.16478 -11.38867,-2.20508 -5.32002,-0.0487 -7.78889,0.52514 -13.26953,3.08984 -6.72093,3.14511 -6.73397,3.14789 -7.17383,0.95703 -0.24238,-1.20725 -0.68681,-4.33035 -0.98633,-6.93945 -0.29951,-2.6091 -1.71003,-7.0439 -3.13476,-9.85547 -1.42473,-2.81157 -4.57048,-7.03693 -6.99024,-9.38867 -2.61924,-2.54561 -7.14328,-5.42214 -11.17968,-7.10938 -6.08686,-2.54433 -7.90386,-2.82976 -17.7793,-2.78906 z"
         id="path3039" />
      <path
         style="display:inline;fill:#007eff;fill-opacity:1"
         d="m 1179.5078,380.04101 c 1.4875,0.007 2.9762,0.76838 3.9688,2.2832 1.3287,2.02783 1.3928,5.2441 0.5058,25.25 -0.5591,12.60939 -1.5137,24.16328 -2.1211,25.67578 -0.8304,2.0677 -1.7869,2.75 -3.8593,2.75 -1.5159,0 -3.3559,-0.72162 -4.0879,-1.60352 -1.9141,-2.30639 -2.3521,-17.54605 -1.0059,-35.02343 0.754,-9.78821 1.6474,-15.57303 2.6387,-17.08594 0.9866,-1.50572 2.4734,-2.25294 3.9609,-2.24609 z"
         id="path3063" />
      <path
         style="display:inline;fill:#007eff;fill-opacity:1"
         d="m 1303.9473,355.05664 c 3.0546,0.031 7.0842,0.59355 8.957,1.25 1.8728,0.65646 4.7511,2.86345 6.3945,4.9043 2.1328,2.64868 3.1243,5.1319 3.4649,8.67578 0.4199,4.36986 0.1607,5.28061 -2.1641,7.60547 -1.6216,1.6216 -3.4898,2.51869 -4.8379,2.32422 -1.2584,-0.18153 -3.4113,-2.12854 -5.0429,-4.5625 -1.607,-2.39737 -3.9408,-4.52289 -5.3594,-4.87891 -1.4284,-0.35852 -3.6266,-0.0351 -5.0918,0.74805 -1.4177,0.75776 -3.2175,2.90758 -4,4.77929 -1.2579,3.00877 -1.2278,3.91179 0.25,7.78125 1.0659,2.79101 4.9932,7.89693 10.8437,14.09571 6.6105,7.00418 9.9603,11.48027 11.9844,16.01757 1.5449,3.46326 3.0565,8.69794 3.3594,11.63282 0.3029,2.93487 0,7.6103 -0.6621,10.39062 -0.6669,2.78032 -2.4902,7.06843 -4.0508,9.5293 -1.6413,2.5881 -4.7665,5.60659 -7.4141,7.1582 -3.1189,1.82779 -6.4098,2.80246 -10.3281,3.06055 -3.1627,0.20833 -6.8773,0.009 -8.2559,-0.44336 -10.7247,-3.51695 -15.9732,-10.67711 -15.9882,-21.81055 -0.01,-5.04494 1.2194,-8.53985 3.955,-11.27539 2.2825,-2.28258 7.2359,-2.71201 8.8496,-0.76758 0.5805,0.69948 0.9737,4.0625 0.8731,7.47266 -0.1598,5.41256 0.134,6.51754 2.3164,8.70313 1.375,1.37702 3.8569,2.77612 5.5156,3.10742 2.2116,0.44175 3.7392,0.034 5.7266,-1.5293 3.23,-2.54071 5.1803,-8.89975 4.2754,-13.93555 -0.355,-1.97492 -2.1435,-5.83984 -3.9746,-8.58984 -1.8311,-2.75 -6.5928,-8.375 -10.5821,-12.5 -7.5358,-7.79225 -11.7652,-15.12067 -12.6855,-21.98242 -0.7265,-5.4166 1.3639,-13.13235 4.8359,-17.85352 1.7353,-2.35958 5.0848,-5.08068 8.1172,-6.59179 3.7606,-1.87399 6.6742,-2.55673 10.7188,-2.51563 z"
         id="path3055" />
      <path
         style="display:inline;fill:#007eff;fill-opacity:1"
         d="m 1243.4434,376.13672 c 0.2633,0.006 0.5444,0.0253 0.8457,0.0547 4.87,0.47502 5.6485,3.08446 4.0468,13.55078 -0.7372,4.81661 -1.4234,13.03281 -1.5273,18.25781 -0.1455,7.32407 0.2152,10.34042 1.5781,13.17187 0.9723,2.01996 2.4978,3.95429 3.3906,4.29688 0.9003,0.34545 2.76,-0.22078 4.1739,-1.26953 4.3467,-3.22415 5.3858,-8.1048 5.6484,-26.53125 0.2045,-14.35443 0.4945,-17.11457 1.9746,-18.75 0.9545,-1.05475 2.7366,-1.91797 3.959,-1.91797 4.0983,0 4.9429,2.4837 5.3184,15.62305 0.1936,6.77467 -0.1473,16.02992 -0.7578,20.5664 -1.3537,10.05781 -5.5383,19.56712 -10.0137,22.75391 -3.6534,2.60141 -9.1719,3.40477 -13.7676,2.00391 -1.7531,-0.53437 -4.5791,-2.65329 -6.2793,-4.70899 -4.6774,-5.65526 -6.0354,-11.66417 -6.0254,-26.66992 0.01,-14.50557 1.3266,-24.87508 3.6094,-28.37695 1.0025,-1.53784 1.9826,-2.09672 3.8262,-2.05469 z"
         id="path3059" />
      <path
         style="display:inline;fill:#007eff;fill-opacity:1"
         d="m 1211.5645,376.20702 c 1.9036,0.0258 3.9953,0.41773 5.5898,1.08399 1.9704,0.82326 4.7227,3.00766 6.1172,4.85351 1.3946,1.84586 3.2549,5.79979 4.1328,8.78711 2.0229,6.88428 2.0523,19.89379 0.062,27.5332 -2.0735,7.96074 -6.1611,15.18612 -9.8887,17.47657 -3.8622,2.37315 -9.2082,3.21783 -12.9726,2.05078 -1.5926,-0.49375 -4.1478,-2.0967 -5.6778,-3.5625 -1.53,-1.4658 -3.77,-4.96419 -4.9785,-7.77344 -4.5171,-10.50011 -3.2643,-30.32307 2.543,-40.23242 1.4043,-2.39631 4.1,-5.53726 5.9922,-6.98047 1.8921,-1.44321 5.1609,-2.85468 7.2636,-3.13672 0.5673,-0.0761 1.1819,-0.10819 1.8165,-0.0996 z"
         id="path3060" />
      <path
         style="display:inline"
         d="m 1211.5566,389.13088 c -2.58,-0.0221 -5.4886,2.55153 -7.0976,6.36914 -1.8244,4.32881 -2.777,13.55455 -1.9902,19.27539 0.3735,2.71644 1.5388,6.35366 2.5898,8.08203 2.5078,4.12365 5.9031,4.16509 9.3125,0.11328 1.402,-1.66619 2.9054,-4.70369 3.3398,-6.75 0.4344,-2.04631 0.7891,-7.62566 0.7891,-12.39843 0,-7.25345 -0.344,-9.14098 -2.0996,-11.5 -1.1552,-1.55223 -3.1063,-2.97065 -4.334,-3.15235 -0.1686,-0.0249 -0.3378,-0.0376 -0.5098,-0.0391 z"
         id="path3066" />
      <path
         style="display:inline;fill:#007eff;fill-opacity:1"
         d="m 1180.4922,350.0156 c 1.9151,-0.005 3.8295,0.68257 5.0801,2.06446 2.3937,2.64502 2.4598,8.69665 0.1328,12.24804 -1.3155,2.00775 -2.5755,2.67188 -5.0723,2.67188 -4.5885,0 -7.1328,-3.03127 -7.1328,-8.5 0,-2.81538 0.6541,-5.01311 1.9043,-6.39453 1.2562,-1.38807 3.1728,-2.08512 5.0879,-2.08985 z"
         id="path3052" />
      <path
         style="display:inline;fill:#007eff;fill-opacity:1"
         d="m 1156.377,375.0332 c 2.5823,0.0201 3.4629,0.65443 5.582,2.77344 2.0972,2.09721 3.041,4.01385 3.041,6.18164 0,1.72846 -0.4658,4.01429 -1.0352,5.07813 -0.5693,1.06384 -1.9604,1.93359 -3.0918,1.93359 -1.1314,0 -3.2012,-0.9 -4.5996,-2 -1.3985,-1.1 -3.0794,-2 -3.7343,-2 -1.9935,0 -5.3852,4.31067 -7.0059,8.9043 -0.8436,2.39099 -1.5332,7.59849 -1.5332,11.57226 0,10.99024 2.839,17.52344 7.6133,17.52344 1.4326,0 3.3559,-1.3221 5.0937,-3.5 3.4598,-4.33616 6.8959,-4.67561 8.3594,-0.82617 0.5592,1.47055 0.7293,3.97892 0.3789,5.57422 -0.9244,4.20903 -6.0386,9.54537 -10.2773,10.72265 -2.0172,0.5603 -4.343,1.01096 -5.168,1.00196 -0.825,-0.009 -3.3696,-0.86496 -5.6543,-1.90235 -5.3381,-2.42381 -8.8223,-8.27954 -10.416,-17.50195 -1.3723,-7.94159 -0.7225,-19.66977 1.5019,-27.08203 0.8274,-2.757 2.5738,-6.46066 3.8809,-8.23242 4.1856,-5.67318 7.5047,-7.61252 13.8066,-8.06836 1.3476,-0.0975 2.3971,-0.15904 3.2579,-0.15235 z"
         id="path3057" />
      <path
         style="display:inline;fill:#007eff;fill-opacity:1"
         d="m 1089.4238,373.05078 c 0.8905,-0.0169 1.4452,0.41757 2.1739,1.41406 0.7715,1.0551 1.4023,2.98353 1.4023,4.28711 0,2.23838 0.2471,2.33328 4.4492,1.70313 3.9554,-0.59315 4.7184,-0.37712 6.8653,1.93945 1.3283,1.43329 2.7487,2.60547 3.1562,2.60547 0.4076,0 2.0768,-1.125 3.7109,-2.5 3.1732,-2.67008 6.6949,-3.17205 9.9688,-1.41992 1.1106,0.59438 2.8709,2.95688 3.9121,5.25 1.4456,3.18409 1.899,6.53296 1.918,14.16992 0.029,11.59223 -1.6793,30.97758 -3.0176,34.25 -0.6649,1.6256 -1.7487,2.25 -3.9063,2.25 -4.9066,0 -5.4155,-2.23217 -4.0625,-17.85742 0.6497,-7.50302 1.0298,-16.11758 0.8438,-19.14258 -0.2903,-4.72061 -0.6213,-5.5 -2.3379,-5.5 -1.3001,0 -2.5855,1.22474 -3.6738,3.5 -0.9208,1.925 -2.2034,8.675 -2.8496,15 -0.6462,6.325 -1.6534,12.08479 -2.2383,12.79883 -0.5848,0.71404 -1.9729,1.16404 -3.084,1 -1.272,-0.18781 -2.3233,-1.40983 -2.8398,-3.29883 -0.4512,-1.65 -0.7786,-8.79821 -0.7266,-15.88477 0.071,-9.76704 -0.2294,-13.09073 -1.2461,-13.73437 -0.7376,-0.46701 -1.7918,-0.71019 -2.3418,-0.54102 -0.55,0.16917 -1.675,1.625 -2.5,3.23438 -1.1189,2.18278 -1.5853,7.3716 -1.8359,20.42578 -0.1936,10.08456 -0.7757,18.02967 -1.3731,18.75 -1.371,1.6534 -3.9536,1.58378 -6.3496,-0.17188 -1.8381,-1.3467 -1.9335,-2.74329 -1.8047,-26.25 0.157,-28.6642 1.0311,-34.14205 5.711,-35.7832 0.8873,-0.31119 1.5418,-0.48397 2.0761,-0.49414 z"
         id="path3056" />
      <path
         style="display:inline;fill:#007eff;fill-opacity:1"
         d="m 1047.3047,375.5957 c 2.1426,0.0699 4.4469,1.31549 5.0723,2.94532 0.3605,0.93938 -0.08,6.71484 -0.9805,12.83398 -2.6789,18.20866 -0.7832,31.625 4.4707,31.625 1.002,0 2.5233,-0.7875 3.3789,-1.75 0.8556,-0.9625 2.1003,-3.55 2.7676,-5.75 0.6672,-2.2 1.3546,-10.93038 1.5273,-19.40039 0.2809,-13.77451 0.5228,-15.60877 2.2949,-17.38086 1.4131,-1.41307 2.7113,-1.79759 4.5274,-1.3418 1.8692,0.46916 2.8229,1.6335 3.5859,4.38086 0.5716,2.05822 1.0449,6.28249 1.0449,9.38672 0.01,10.52317 -2.025,26.32983 -4.1328,32.0957 -1.3711,3.75064 -3.4445,6.95715 -5.9824,9.25 -3.3823,3.05574 -4.5511,3.50977 -9.0371,3.50977 -4.6794,0 -5.4883,-0.3544 -8.8262,-3.86328 C 1042.0367,426.90281 1040,419.35147 1040,406.125 c 0,-10.71407 1.3839,-22.75944 3.1348,-27.2793 0.5656,-1.46013 1.7963,-2.85627 2.7343,-3.10156 0.4545,-0.11884 0.9411,-0.16456 1.4356,-0.14844 z"
         id="path3058" />
      <path
         style="display:inline;fill:#ff7300;fill-opacity:1"
         d="m 1029.5625,350 c 3.0528,0 6.4375,4.4692 6.4375,8.5 0,1.77666 -0.8898,4.36064 -1.9766,5.74219 -1.0867,1.38156 -2.8471,2.74055 -3.914,3.01953 -1.0668,0.27899 -2.9914,-0.0163 -4.2754,-0.65625 -3.1532,-1.57169 -5.1309,-5.97337 -4.3281,-9.62891 0.7629,-3.47335 4.8081,-6.97656 8.0566,-6.97656 z"
         id="path3051" />
      <path
         style="display:inline;fill:#ff7300;fill-opacity:1"
         d="m 1027.8711,380.05471 c 1.2973,0.0442 2.6151,0.57412 3.6543,1.61328 1.4716,1.47156 1.5961,3.51045 1.0547,17.25 -1.1748,29.81643 -1.6119,34.1138 -3.6817,36.18359 -1.0445,1.04451 -2.298,1.89844 -2.7871,1.89844 -0.4891,0 -1.9516,-0.86274 -3.25,-1.91602 -2.3187,-1.88092 -2.3574,-2.19745 -2.1523,-17.75 0.2835,-21.50696 1.1829,-32.39971 2.8984,-35.08398 0.9617,-1.50472 2.5957,-2.25214 4.2637,-2.19531 z"
         id="path3064" />
      <path
         style="display:inline;fill:#ff7300;fill-opacity:1"
         d="m 1007.5645,324.12305 c 0.582,0.0156 1.1955,0.10098 1.8359,0.26172 4.2141,1.05767 4.5056,3.69731 3.0078,27.19921 -0.7682,12.05395 -1.387,36.76602 -1.377,54.91602 0.01,18.15 0.068,34.31105 0.129,35.91406 0.067,1.76706 -0.6096,3.44034 -1.7168,4.25 -1.0045,0.73449 -2.5896,1.33594 -3.5235,1.33594 -0.934,0 -2.68,-0.79518 -3.8808,-1.76758 -1.8796,-1.522 -2.32896,-3.36568 -3.22074,-13.25 -0.63354,-7.02199 -0.80156,-25.66029 -0.43359,-47.98242 0.59673,-36.19867 1.62803,-51.98502 3.73633,-57.2168 0.9884,-2.45281 2.921,-3.72776 5.4434,-3.66015 z"
         id="path3041" />
      <path
         style="display:inline;fill:#ff7300;fill-opacity:1"
         d="m 983.8125,327.14256 c 1.47635,-0.0449 2.11781,0.48013 2.49023,1.90429 0.3117,1.19193 1.04038,1.85909 1.63086,1.49415 0.70133,-0.43345 1.06641,1.03326 1.06641,4.27539 0,6.44821 -1.05423,11.71441 -2.0293,10.13671 -1.10161,-1.78244 -2.9707,-0.19523 -2.9707,2.52344 0,3.29502 1.02945,5.62328 2.17383,4.91602 0.61228,-0.37841 0.90426,10.66406 0.79883,30.25586 -0.0913,16.9684 0.30158,36.70156 0.875,43.85156 0.88185,10.99582 0.81637,13.34688 -0.42579,15.25 -0.80771,1.2375 -2.10001,2.25 -2.87304,2.25 -2.22553,0 -4.41465,-2.77007 -5.10742,-6.46289 -0.35067,-1.86922 -1.28532,-3.64769 -2.07618,-3.95117 -0.79087,-0.30349 -3.10228,0.34125 -5.13671,1.43164 -2.03442,1.09039 -5.18279,1.98242 -6.9961,1.98242 -1.81331,0 -4.87385,-0.65777 -6.80078,-1.46289 -2.81178,-1.17484 -4.09396,-2.72783 -6.49805,-7.86524 -1.64753,-3.5207 -3.2606,-8.63675 -3.58398,-11.36718 -0.32338,-2.73043 -0.0453,-8.30352 0.61719,-12.38477 0.96066,-5.91782 2.09596,-8.7798 5.60547,-14.13672 2.48769,-3.79721 5.74232,-7.41158 7.48828,-8.31445 1.98883,-1.02847 4.92983,-1.48559 8.25781,-1.2832 l 5.16797,0.31445 0.65625,-7 c 0.36129,-3.85 0.90213,-14.53587 1.20117,-23.74609 0.3474,-10.70007 1.01785,-17.74018 1.85742,-19.5 0.85155,-1.78491 2.23305,-2.86171 3.92578,-3.0586 0.24666,-0.0287 0.47464,-0.0463 0.68555,-0.0527 z"
         id="path3043" />
      <path
         style="display:inline;fill:#ff7300;fill-opacity:1"
         d="m 936.17187,351 c 1.11271,0 2.04731,1.0259 2.47071,2.71289 0.61215,2.43898 0.75594,2.51487 1.41015,0.75 0.66527,-1.7947 0.8206,-1.72602 1.8125,0.78711 1.43039,3.6241 0.38564,8.45961 -2.2207,10.28516 -1.14968,0.80526 -2.88956,1.46484 -3.86719,1.46484 -0.97762,0 -2.73025,-0.95291 -3.89453,-2.11719 -1.73613,-1.73613 -2.02423,-2.93953 -1.60156,-6.68945 C 930.8128,353.47748 932.842,351 936.17187,351 Z"
         id="path3053" />
      <path
         style="display:inline"
         d="m 969.31836,390.38088 c -3.25324,0.088 -6.83612,1.99316 -8.0918,5.32226 -2.51918,6.67897 -3.2257,9.9043 -3.2207,14.69532 0.008,6.89525 1.61947,12.22566 4.25586,14.07226 1.201,0.84121 2.88304,1.5293 3.73828,1.5293 2.72329,0 6.15726,-3.1357 8.08594,-7.38281 1.38443,-3.04861 1.87628,-6.50221 1.89258,-13.30274 0.0121,-5.0517 -0.40095,-10.29639 -0.91797,-11.65625 -0.88009,-2.31481 -3.2119,-3.3458 -5.74219,-3.27734 z"
         id="path3067" />
      <path
         style="display:inline;fill:#ff7300;fill-opacity:1"
         d="m 935.43945,381.32619 c 0.79562,0.0186 1.59058,0.28447 2.25977,0.83985 1.42195,1.18011 1.53487,4.03806 0.99609,25.1914 -0.48983,19.23161 -0.91062,24.32209 -2.17383,26.25 -0.86196,1.31552 -2.19962,2.39258 -2.97265,2.39258 -0.77304,0 -2.11228,-0.70798 -2.97656,-1.57227 C 929.28014,433.1356 929,430.12686 929,417.5 c 0,-13.43048 0.96224,-26.06981 2.52539,-33.18359 0.41275,-1.87838 2.1637,-3.03105 3.91406,-2.99024 z"
         id="path3065" />
      <path
         style="display:inline;fill:#160911;fill-opacity:0"
         d="m 893.57422,379.92186 c 0.11772,-0.007 0.25864,0.18917 0.42578,0.57813 0.47269,1.1 0.88386,3.125 0.91406,4.5 0.0302,1.375 -0.3809,3.175 -0.91406,4 -0.68225,1.0557 -0.95276,-0.27719 -0.91406,-4.5 0.0284,-3.10056 0.17548,-4.55844 0.48828,-4.57813 z"
         id="path3062" />
      <path
         style="display:inline;fill:#ff7300;fill-opacity:1;stroke:#ff7300;stroke-opacity:1"
         d="m 875.60547,327.09766 c 1.37528,-0.0659 3.05871,-0.0155 5.15039,0.10937 5.2283,0.31223 9.04329,1.14821 11.74414,2.57422 6.08903,3.21491 13.55948,9.2752 17.00977,13.79883 1.70427,2.23446 4.60054,8.52923 6.4375,13.99023 2.47496,7.35768 3.45815,12.26048 3.79296,18.92969 0.2485,4.95 -0.0113,13.05 -0.57617,18 -1.85147,16.22348 -10.57274,34.31306 -21.15234,43.87109 -2.17894,1.96855 -7.11096,5.1647 -10.96094,7.10352 -7.71023,3.88281 -13.89498,4.6218 -16.13086,1.92773 -0.82967,-0.99969 -1.60715,-6.1438 -2.07617,-13.75 -1.08373,-17.57528 -1.06016,-98.95285 0.0293,-101.81836 1.25788,-3.30849 2.60656,-4.53879 6.73242,-4.73632 z"
         id="path3042" />
      <path
         style="display:inline;fill:#000000;fill-opacity:1"
         d="M 884.02734,342.92578 C 880.89731,342.87675 881,347.30886 881,373.8125 c 0,16.43091 0.29477,35.3449 0.6543,42.03125 0.59859,11.13252 0.81649,12.15625 2.58984,12.15625 5.73914,0 16.64482,-13.4647 19.26563,-23.78516 2.7167,-10.69805 3.39187,-18.90865 2.38476,-29.01172 -0.67879,-6.80944 -1.71908,-11.26091 -3.49023,-14.92578 -3.09944,-6.41339 -11.93211,-15.90392 -15.65235,-16.81836 -1.10754,-0.27223 -2.00229,-0.52188 -2.72461,-0.5332 z"
         id="path3047" />
      <g
         id="g3067">
        <path
           style="display:inline"
           d="m 595.16016,379.0703 c 0.55271,-0.01 1.33002,0.3795 2.70117,1.18946 1.64437,0.97135 4.96939,1.74023 7.52344,1.74023 3.99602,0 4.65411,0.30442 5.17968,2.39844 0.33105,1.31906 0.45066,3.44451 0.26758,4.72265 -0.2688,1.87655 -1.19823,2.48945 -4.83203,3.1875 -2.75668,0.52955 -5.67993,1.99262 -7.54688,3.77735 -1.67617,1.60236 -3.28933,2.91406 -3.58398,2.91406 -0.29465,0 -0.83646,-0.29935 -1.20312,-0.66602 -1.02246,-1.02245 -0.76115,-16.63529 0.30664,-18.32421 0.38694,-0.61202 0.69981,-0.931 1.1875,-0.93946 z"
           id="path3061" />
        <path
           style="display:inline"
           d="m 533.19141,349 c 1.26437,0 2.48517,1.41386 3.72851,4.31445 1.0171,2.3728 3.27141,5.50993 5.00977,6.97266 3.79249,3.19117 10.1472,5.07542 14.15429,4.19531 2.33629,-0.51314 2.91602,-0.30038 2.91602,1.07227 0,0.94238 -0.43355,3.34127 -0.96289,5.33008 -0.52935,1.98881 -1.23119,5.75273 -1.56055,8.36523 -0.32935,2.6125 -0.90831,4.73841 -1.28711,4.72461 -0.3788,-0.0137 -5.9426,-4.30113 -12.36328,-9.52734 -8.55683,-6.96496 -12.2337,-10.65931 -13.77148,-13.83594 -1.2436,-2.56893 -1.82331,-5.10296 -1.42383,-6.22266 1.07573,-3.01513 3.5252,-5.38867 5.56055,-5.38867 z"
           id="path3050" />
        <path
           style="display:inline;fill:#ff00a4;fill-opacity:1"
           d="m 849.5332,339.18162 c 0.95017,0.034 1.77313,0.52179 2.30078,1.50781 1.53227,2.86331 2.25321,9.73423 2.60547,24.81055 0.17992,7.7 0.91302,29.6226 1.62891,48.7168 1.24913,33.31696 1.22688,34.79866 -0.53906,36.75 -1.02877,1.13678 -3.09303,2.0332 -4.6836,2.0332 -1.56475,0 -3.67806,-0.83236 -4.69531,-1.84961 -1.51199,-1.51199 -1.95631,-4.02137 -2.4375,-13.75 -0.32375,-6.54525 -0.46109,-19.92801 -0.30469,-29.74023 0.23335,-14.64008 0.031,-17.93773 -1.1289,-18.38282 -0.77739,-0.29831 -1.85983,-0.0972 -2.4043,0.44727 -0.54448,0.54448 -2.29957,5.50815 -3.90039,11.03125 -3.91556,13.50931 -5.84962,18.1062 -8.13281,19.32812 -1.05463,0.56443 -2.79693,0.74718 -3.8711,0.40625 -1.3426,-0.42613 -2.44011,-2.39619 -3.51367,-6.30468 -3.02139,-10.99992 -6.66232,-20.18555 -8,-20.18555 -0.73674,0 -1.61014,0.43863 -1.94141,0.97461 -0.33125,0.53598 -0.84342,9.42348 -1.13867,19.75 -0.29525,10.32652 -0.95493,20.40977 -1.46484,22.4082 -0.5099,1.99843 -1.59234,4.18779 -2.40625,4.86328 -2.0801,1.72633 -6.16512,0.45291 -8.11914,-2.52929 -1.48141,-2.26092 -1.52587,-4.39057 -0.4668,-22.23243 2.39333,-40.31968 4.46226,-62.1694 6.24024,-65.89648 1.07537,-2.25425 2.12405,-2.90225 5.09179,-3.14844 3.12362,-0.25913 3.88615,0.0691 4.65235,2 1.76655,4.45178 6.99766,22.3776 8.59179,29.44141 0.8852,3.92242 2.16127,7.88468 2.83399,8.80469 1.95327,2.67125 4.36058,0.85225 5.63086,-4.25391 2.38727,-9.59606 12.51725,-38.59627 14.52539,-41.58398 1.52423,-2.26775 3.46326,-3.47261 5.04687,-3.41602 z"
           id="path3045" />
        <path
           style="display:inline;fill:#ff00a4;fill-opacity:1"
           d="m 778.16602,339.02342 c 1.5233,-0.0224 2.94785,0.90612 3.79882,2.72656 0.82792,1.77111 1.58201,10.58109 2.11914,24.75 0.45869,12.1 1.30174,32.575 1.87305,45.5 0.57131,12.925 1.04002,26.5375 1.04102,30.25 0.002,5.41863 -0.39253,7.14448 -1.99805,8.75 -2.33376,2.33376 -6.7893,2.60513 -9.55859,0.58203 -1.82748,-1.33508 -1.97068,-3.19408 -2.44141,-31.73828 -0.44169,-26.78354 -0.68798,-30.3549 -2.10547,-30.62695 -1.24257,-0.23848 -2.44813,2.35442 -5.34766,11.48828 -6.44448,20.30095 -5.65594,18.75624 -9.76757,19.10156 -2.70716,0.22736 -3.89694,-0.15983 -4.60938,-1.5 -0.52817,-0.99356 -2.185,-6.53164 -3.68164,-12.30664 -1.49664,-5.775 -3.34044,-11.1556 -4.09766,-11.95703 -1.10489,-1.16939 -1.62393,-1.209 -2.63281,-0.20117 -0.88607,0.88516 -1.43712,7.36615 -1.86328,21.95703 -0.39397,13.489 -1.04691,21.63322 -1.875,23.375 -1.45605,3.06267 -5.15061,4.36184 -8.02734,2.82226 -1.08222,-0.57919 -2.2616,-2.21997 -2.61914,-3.64453 -0.77976,-3.10681 0.21152,-30.93381 1.72265,-48.35156 2.66318,-30.6966 3.66387,-39.00477 4.86914,-40.45703 0.70409,-0.84838 2.7898,-1.54297 4.63477,-1.54297 2.4275,0 3.78412,0.65645 4.91016,2.375 0.85582,1.30615 2.68873,7.04365 4.07226,12.75 3.73385,15.40026 7.36268,25.875 8.96484,25.875 0.76049,0 1.89037,-0.94616 2.50977,-2.10352 0.6194,-1.15735 4.23379,-11.58564 8.0332,-23.17187 3.7994,-11.58623 7.65366,-21.88812 8.56446,-22.89453 1.08265,-1.19632 2.32692,-1.7892 3.51172,-1.80664 z"
           id="path3044" />
        <path
           style="display:inline;fill:#ff00a4;fill-opacity:1"
           d="m 710.49805,344.14258 c 0.25895,0.005 0.53362,0.0222 0.82617,0.0508 2.10277,0.20563 3.51213,1.07901 4.29492,2.6582 0.6411,1.29333 1.46036,8.49333 1.82031,16 0.45511,9.49119 0.19549,17.91282 -0.85547,27.64844 -0.83121,7.7 -2.4592,17.07103 -3.61718,20.82422 -1.38998,4.50513 -3.35724,8.2095 -5.78711,10.90234 -2.02431,2.24339 -5.12861,4.68486 -6.89844,5.42578 -4.41319,1.84753 -10.10148,1.68628 -14.25586,-0.40429 -1.91098,-0.96165 -4.7221,-3.54805 -6.24805,-5.74805 -1.52594,-2.2 -3.74634,-6.7 -4.93359,-10 -1.74398,-4.84745 -2.25042,-8.97742 -2.63281,-21.5 -0.26862,-8.79669 0.0497,-20.47342 0.73437,-27 0.66355,-6.325 1.40431,-12.50774 1.64649,-13.73828 0.24218,-1.23054 1.57604,-2.98066 2.96484,-3.89063 2.02611,-1.32756 3.01507,-1.43173 5,-0.52734 1.36057,0.61992 2.98291,2.24496 3.60547,3.61133 0.85458,1.87562 0.81626,4.32836 -0.15625,10.01367 -0.70846,4.14173 -1.64418,7.53125 -2.07813,7.53125 -0.43394,0 -0.98429,-1.0125 -1.22265,-2.25 -0.30748,-1.59641 -0.47176,-1.28922 -0.56836,1.05859 -0.0749,1.81996 0.26412,3.06247 0.7539,2.75977 0.5029,-0.31081 1.06562,7.38826 1.29297,17.68945 0.35203,15.95107 0.6709,18.83409 2.53711,22.95508 1.57244,3.47231 2.85799,4.89512 4.88672,5.4043 3.50379,0.87939 7.21072,-1.14264 9.60156,-5.23633 0.99538,-1.70433 2.24187,-6.4252 2.76954,-10.49024 0.52768,-4.06503 0.97323,-16.85284 0.99023,-28.41796 0.0258,-17.60036 0.29102,-21.39933 1.62695,-23.30664 1.04388,-1.49034 2.08965,-2.05814 3.90235,-2.02344 z"
           id="path3048" />
        <path
           style="display:inline;fill:#ff00a4;fill-opacity:1"
           d="m 638,340.60156 c 5.53885,0.0752 8.59551,0.66057 11.69141,2.24024 7.22648,3.68729 12.29637,12.14846 13.07226,21.81445 0.39954,4.97734 -0.0495,8.0177 -2.21484,14.96289 -2.415,7.74574 -3.32036,9.29593 -8.13281,13.91992 -2.97849,2.86185 -5.40844,6.04857 -5.39844,7.08203 0.037,3.83359 13.60242,25.77415 20.625,33.35938 5.66143,6.11502 6.69983,9.53258 3.78515,12.44726 -0.86428,0.86429 -2.72257,1.57227 -4.13086,1.57227 -1.4083,0 -4.01174,-0.89616 -5.78515,-1.99219 -3.7694,-2.32962 -16.91903,-21.61003 -20.80664,-30.50781 -1.80286,-4.1263 -3.17958,-6 -4.41211,-6 -1.67471,0 -1.76982,1.31121 -1.44727,20 0.27053,15.67448 0.0543,20.35606 -1,21.64844 -0.73985,0.90697 -2.2457,1.88718 -3.3457,2.17773 -2.66938,0.70507 -6.03595,-0.72961 -7.01953,-2.99219 -0.43842,-1.00852 -0.9949,-23.66763 -1.23828,-50.35351 -0.30691,-33.65222 -0.10383,-49.77914 0.66406,-52.63086 0.86234,-3.20247 1.8234,-4.41451 4.34961,-5.48047 1.87332,-0.79047 6.41228,-1.32638 10.74414,-1.26758 z"
           id="path3046" />
        <path
           style="display:inline;fill:#160911;fill-opacity:1"
           d="m 637.93555,353 c -0.51419,0 -1.83555,0.9 -2.93555,2 -1.83122,1.83122 -2,3.33411 -2,17.80078 0,10.95556 0.36715,16.16793 1.19922,17 0.66,0.66 1.35847,1.19922 1.55078,1.19922 0.19231,0 1.62947,-0.66198 3.19336,-1.4707 3.70363,-1.91522 9.5016,-9.89222 11.10742,-15.28125 1.00188,-3.36229 1.01554,-5.37208 0.0664,-9.61328 -0.67373,-3.01053 -2.16842,-6.27227 -3.40821,-7.4336 C 644.60771,355.2329 639.94396,353 637.93555,353 Z"
           id="path3054" />
        <path
           style="display:inline;fill:#ff00a4;fill-opacity:1"
           d="m 596.57617,344.51953 c 3.0585,0.041 5.86008,0.73335 8.57227,2.0957 3.07841,1.54631 6.85156,8.69467 6.85156,12.97852 0,3.98918 -2.5553,7.40625 -5.53711,7.40625 -1.81132,0 -2.92663,-0.98891 -4.41992,-3.91602 -1.42845,-2.79999 -2.8379,-4.0992 -4.94727,-4.5625 -3.99502,-0.87745 -8.44972,1.56978 -10.34179,5.6836 -4.02968,8.76152 -5.2528,14.38113 -5.1836,23.79492 0.0539,7.32613 0.57829,10.79773 2.29102,15.16797 1.22153,3.11685 3.1518,6.85057 4.29101,8.29883 1.78578,2.27029 2.70574,2.59282 6.67578,2.33398 4.02335,-0.2623 4.88895,-0.7427 6.84766,-3.80078 4.84759,-7.56844 4.82335,-7.54867 7.58789,-6.28906 1.84826,0.84212 2.71428,2.20506 3.18945,5.01758 0.36371,2.15277 0.15669,5.16749 -0.46875,6.8125 -1.62216,4.26661 -5.66905,9.25022 -8.78515,10.81835 -5.67109,2.85389 -15.41941,2.55607 -20.21289,-0.61718 -3.07866,-2.03805 -9.24358,-10.16394 -10.80469,-14.24219 -2.33766,-6.10691 -4.15231,-16.20047 -4.13281,-23 0.0264,-9.20283 2.2636,-21.44832 4.91992,-26.93555 1.17089,-2.41872 4.48792,-6.85283 7.37109,-9.85351 4.34153,-4.51848 6.13071,-5.64542 10.41602,-6.56446 2.05695,-0.44113 3.98521,-0.65156 5.82031,-0.62695 z"
           id="path3049" />
        <path
           style="display:inline;fill:#ff00a4;fill-opacity:1"
           d="m 536.5,312.50195 c 8.09969,-9.5e-4 9.53277,0.29272 14.33203,2.95117 2.93299,1.62467 6.38053,4.19996 7.66016,5.72071 1.27964,1.52076 3.08788,5.05836 4.01953,7.86328 2.21956,6.68246 1.33277,12.98578 -2.41797,17.18359 -2.06896,2.31556 -3.57685,3.07076 -5.99805,3.00196 -1.779,-0.0506 -3.82269,-0.57963 -4.54101,-1.17579 -0.71832,-0.59615 -1.87421,-3.11252 -2.56836,-5.59179 -1.68995,-6.03588 -5.7873,-9.45821 -11.3125,-9.44531 -5.04442,0.0118 -13.78389,3.88911 -16.07617,7.13281 -0.91611,1.29635 -2.36475,4.74478 -3.21875,7.66211 -1.28368,4.3852 -1.34591,6.16016 -0.36524,10.24804 0.65241,2.71954 2.86858,7.53219 4.92578,10.69532 2.05719,3.16313 5.94979,7.32293 8.65039,9.24218 2.7006,1.91925 9.18516,7.23794 14.41016,11.82032 9.59964,8.41899 15.80445,16.55135 18.53516,24.29101 0.76831,2.17765 1.69862,7.94449 2.0664,12.81641 0.51609,6.83646 0.26869,10.48827 -1.08203,16 -0.96258,3.92788 -2.85233,8.76525 -4.19922,10.75 -4.86682,7.17167 -10.84038,13.29723 -15.28515,15.66992 -2.49393,1.3313 -6.78516,2.89662 -9.53516,3.47852 -7.7537,1.64067 -14.6007,2.04363 -19.22656,1.13086 -9.11604,-1.79876 -19.97569,-10.69132 -22.65235,-18.54688 -0.89382,-2.62322 -1.62153,-7.92858 -1.62109,-11.82812 6.4e-4,-5.72405 0.55274,-8.23917 2.89648,-13.19336 1.59259,-3.36641 3.9433,-6.85391 5.22266,-7.75 2.9361,-2.05652 8.24083,-2.10556 9.91211,-0.0918 1.03473,1.24681 1.03013,2.83491 -0.0215,8.4082 -0.71311,3.77941 -1.00529,8.3251 -0.6504,10.09961 0.94831,4.74146 4.39457,9.77429 7.98633,11.66016 4.32598,2.27136 12.40345,1.97447 17.53711,-0.64453 2.2632,-1.1546 5.20641,-3.77845 6.54102,-5.83008 1.33461,-2.05164 2.94451,-5.70798 3.57812,-8.125 0.86425,-3.29672 0.86877,-6.02229 0.0176,-10.91016 -0.62405,-3.5836 -1.84092,-7.90609 -2.70508,-9.60547 -2.95399,-5.809 -10.59947,-13.74391 -18.70898,-19.41797 -4.45789,-3.11908 -11.3759,-8.77481 -15.37305,-12.5664 -5.12886,-4.86509 -8.11195,-8.69072 -10.13867,-13 -1.57951,-3.35841 -3.37235,-9.06405 -3.98242,-12.67969 -0.80389,-4.76453 -0.80923,-8.19186 -0.0215,-12.45312 0.59779,-3.23373 2.45175,-8.58563 4.1211,-11.89258 1.69634,-3.36044 5.77189,-8.74846 9.23828,-12.21485 5.36935,-5.36934 7.19961,-6.51549 13.62695,-8.5332 5.47177,-1.71773 9.79078,-2.32931 16.42383,-2.33008 z"
           id="path3040" />
      </g>
    </g>
    <g
       id="g3038"
       style="display:inline">
      <path
         d="m 362,119.28125 c -11.87244,0.5085 -22.23892,2.74239 -33.23047,7.16406 -9.34544,3.75948 -20.12117,10.39473 -27.07617,16.67188 -3.58438,3.23503 -6.9698,5.88281 -7.52344,5.88281 -0.55365,0 -1.9472,-1.5206 -3.0957,-3.37891 -3.13584,-5.0739 -10.57918,-11.50513 -16.39844,-14.16797 -2.84633,-1.30245 -8.10078,-3.11986 -11.67578,-4.03906 -5.00536,-1.28698 -9.14437,-1.5497 -18,-1.14258 -8.78681,0.40395 -13.42985,1.16739 -19.68164,3.23829 -8.9161,2.95345 -21.23328,9.83289 -28.73242,16.04687 -2.61774,2.16914 -7.44281,7.48905 -10.72266,11.82227 -6.32812,8.36046 -10.70833,16.30452 -14.39648,26.11523 -1.24193,3.30361 -2.60507,6.00586 -3.0293,6.00586 -0.42423,0 -1.40255,-1.89318 -2.17383,-4.20703 -0.77128,-2.31384 -2.961,-5.57634 -4.86719,-7.25 C 158.98054,175.92175 156.89444,175 154.51172,175 c -1.87999,0 -4.54676,0.51531 -5.92774,1.14453 -3.24421,1.47816 -7.52214,7.67818 -8.65039,12.53906 -1.51671,6.53453 -1.03101,17.55369 1.15625,26.20313 1.14975,4.54663 1.92072,8.4367 1.71289,8.64453 -0.20783,0.20783 -3.28542,-0.0483 -6.83984,-0.56836 -3.55441,-0.5201 -8.48789,-0.67254 -10.96289,-0.33789 -2.475,0.33465 -6.68799,1.7806 -9.36328,3.21289 -2.67529,1.43228 -5.93779,4.18414 -7.25,6.11523 -1.49805,2.20458 -2.38672,4.9503 -2.38672,7.37891 0,3.04706 0.70515,4.57234 3.32031,7.1875 2.11446,2.11446 5.38184,3.91887 9,4.9707 3.09979,0.90114 5.64018,1.8144 5.67969,2.03907 0,0 0,0.002 0,0.002 0,0 0,0.002 0,0.002 0,0.21548 -2.66705,2.20369 -5.92773,4.41797 -9.39289,6.37859 -18.361987,16.10803 -22.88477,24.82617 -6.753053,13.01723 -9.023908,24.22522 -7.210938,35.57227 0.601886,3.76708 2.397094,9.72274 3.990235,13.23633 3.280893,7.23586 11.595253,16.64127 17.275393,19.53906 2.06626,1.05413 3.75781,2.59562 3.75781,3.42773 0,0.8321 -1.07193,3.63626 -2.38281,6.23047 -3.49059,6.90784 -7.31424,19.7631 -8.11328,27.28125 -0.84715,7.97075 0.77149,19.75279 4.08203,29.71485 1.3303,4.00314 4.22869,10.1421 6.43945,13.64257 2.21076,3.5005 6.03664,8.22367 8.50195,10.4961 6.76132,6.23238 16.07762,11.88052 23.25586,14.09765 8.11104,2.50525 20.96636,2.62958 29.75,0.28907 l 6.36133,-1.69532 4.30274,4.57032 c 2.36634,2.51339 5.81662,5.33922 7.66601,6.27929 4.69517,2.38662 13.15517,3.07567 18.69922,1.52344 2.98143,-0.83475 6.5118,-3.02659 9.97461,-6.1914 l 5.35937,-4.89844 8.30274,4.00976 c 9.70378,4.6865 23.48748,9.30414 33.07812,11.08008 4.62755,0.85691 7.0866,1.83073 7.75,3.07031 1.06573,1.99134 1.31647,7.27143 0.38868,8.19922 -0.32138,0.32138 -3.30914,-0.70467 -6.63868,-2.27929 -3.32953,-1.57462 -8.4864,-3.16743 -11.46093,-3.53907 -6.04955,-0.75584 -15.20413,0.72584 -21.63086,3.5 -6.42617,2.77392 -15.79157,10.30304 -20.89649,16.80078 -2.53335,3.22455 -6.18734,8.76641 -8.12109,12.31446 -4.63623,8.50654 -10.37513,25.28348 -12.0957,35.36523 -3.28654,19.25762 -2.82014,36.44351 1.10546,40.78125 1.30128,1.4379 2.8372,1.86256 6.03321,1.66602 2.35801,-0.14501 4.66245,0.16438 5.12109,0.6875 0.45863,0.52312 1.83173,3.65117 3.05078,6.95117 6.79733,18.40058 21.95442,34.91907 40.625,44.27344 7.26668,3.64077 20.80918,7.93462 28.99219,9.1914 8.45542,1.29862 32.49383,0.49252 42,-1.4082 11.44544,-2.28848 24.80103,-6.04564 33.62695,-9.46094 19.94794,-7.71911 42.34498,-21.65685 59.86719,-37.2539 l 10.49609,-9.3418 8.00391,0.31641 c 6.46468,0.25528 9.64163,-0.19362 16.50586,-2.33204 4.675,-1.4564 9.58755,-2.724 10.91797,-2.8164 2.05195,-0.1426 3.79669,1.87212 11.5,13.28125 4.99458,7.39732 10.26275,14.30443 11.70508,15.34961 3.40982,2.47089 9.39093,2.44998 12.7539,-0.0449 1.44233,-1.07003 3.19682,-3.65944 3.89844,-5.75586 0.95001,-2.83857 1.00296,-4.641 0.20508,-7.0586 -0.58927,-1.7855 -5.2884,-9.67731 -10.44141,-17.53711 l -9.36914,-14.29101 3.57031,-7.05469 c 2.79478,-5.5253 3.57008,-8.25025 3.58008,-12.56055 0.0127,-5.57053 -1.12794,-8.86075 -4.33398,-12.49609 -1.14616,-1.29963 -1.91264,-4.19358 -2.18946,-8.26367 -0.47581,-6.99585 -2.37374,-10.35581 -7.88867,-13.96875 -5.26399,-3.44854 -5.9082,-4.17379 -5.9082,-6.65821 0,-3.16782 -3.8474,-8.6173 -7.65625,-10.84179 -1.73255,-1.01186 -5.33246,-2.09019 -7.99805,-2.39844 -4.65799,-0.53866 -6.84104,-0.0314 -16.08008,3.73828 -2.92097,1.19181 -3.37622,1.12867 -4.70117,-0.64453 -0.80679,-1.07974 -2.24285,-3.385 -3.19336,-5.12305 l -1.72851,-3.16015 5.64844,-5.16211 c 3.10703,-2.83965 7.73606,-7.94034 10.2871,-11.33399 8.71543,-11.59407 13.94026,-24.65461 15.32422,-38.30859 0.4815,-4.75037 0.48293,-11.89052 0.002,-16.1875 -0.98048,-8.75966 -5.58104,-23.23684 -9.55274,-30.06445 -4.16946,-7.16757 -9.03191,-13.22022 -14.42187,-17.95118 L 430,366.8457 v -8.21289 c 0,-4.51679 -0.6684,-10.78162 -1.48633,-13.92187 -0.81793,-3.14025 -3.06023,-8.83342 -4.98242,-12.65039 l -3.49609,-6.93946 4.52343,-5.29882 c 5.67716,-6.65097 7.87216,-13.57487 7.21094,-22.74805 -0.32328,-4.48493 -1.31618,-8.1636 -3.12305,-11.57422 -1.45689,-2.75 -3.3444,-5.96237 -4.19531,-7.13867 -1.46502,-2.02525 -1.36784,-2.24837 1.82031,-4.21875 5.41124,-3.34433 14.57283,-13.60813 17.18946,-19.25586 1.32874,-2.86795 2.96282,-8.27362 3.63086,-12.01172 0.94806,-5.30494 0.95181,-8.39619 0.0156,-14.08594 -1.29621,-7.87774 -4.68306,-16.23325 -8.72851,-21.53711 -1.3976,-1.83235 -4.41599,-4.52793 -6.70899,-5.99023 -7.94276,-5.06528 -7.72508,-4.5513 -4.91601,-11.50586 1.65014,-4.08532 2.66633,-8.93294 3.0039,-14.34375 0.40674,-6.51947 0.0811,-9.58199 -1.60547,-15.13477 -1.17074,-3.8544 -4.3388,-10.36957 -7.09765,-14.5957 -3.47622,-5.32503 -6.88199,-9.0437 -11.26758,-12.30078 -3.45745,-2.56777 -9.11822,-5.96631 -12.57813,-7.55273 -3.4599,-1.58642 -10.2099,-3.82032 -15,-4.9629 C 375.08708,119.16645 371.404,118.87848 362,119.28125 Z m -0.65039,8.07422 c 3.01634,-0.18333 5.95012,-0.18452 8.74023,0.008 4.72405,0.32565 11.32707,1.4447 14.67383,2.48633 14.06377,4.37714 27.46206,14.78132 32.625,25.33398 1.44938,2.96244 3.14185,8.26607 3.76172,11.78516 0.84712,4.80905 0.83684,7.97817 -0.0449,12.76367 -0.64524,3.50184 -2.58989,9.23895 -4.32031,12.74805 -2.59503,5.26244 -2.92501,6.64697 -1.88477,7.90039 0.69365,0.8358 3.1713,2.44408 5.50586,3.57422 6.69498,3.24099 12.23448,8.61186 15.2832,14.82031 2.53935,5.17116 2.81055,6.73915 2.81055,16.22461 0,9.28954 -0.30756,11.15747 -2.66992,16.19727 -1.4686,3.13307 -4.69429,7.71967 -7.16797,10.19335 -2.47369,2.47369 -7.17712,5.85018 -10.45313,7.50391 -5.004,2.52601 -7.20898,4.56134 -7.20898,6.6543 0,0.21166 2.08312,2.72927 4.62891,5.5957 2.5458,2.86644 5.46139,7.04378 6.47851,9.2832 1.01712,2.23942 1.84961,6.32227 1.84961,9.07227 0,7.15696 -5.01967,17.5 -8.49219,17.5 -1.89745,0 -9.24717,-10.33228 -13.02539,-18.31055 -1.87263,-3.95432 -4.77271,-12.81445 -6.44531,-19.68945 -1.6726,-6.875 -4.26817,-16.04593 -5.76758,-20.37891 l -2.72656,-7.87695 3,-2.11523 c 5.27278,-3.71683 13.41202,-12.4339 14.07422,-15.07227 0.35242,-1.40415 0.38151,-3.22846 0.0644,-4.05469 -1.17377,-3.05882 -4.68679,-1.45322 -10.67383,4.87696 -6.91072,7.30682 -13.82895,10.92506 -23.98242,12.54492 -13.24204,2.11261 -30.17592,-2.93839 -43.68945,-13.03321 C 323.42907,231.75125 320.22228,230 319.16602,230 c -3.22267,0 -4.25972,2.31225 -3.64454,8.13086 0.37318,3.52961 0.11682,6.22594 -0.75,7.86914 -0.72534,1.375 -2.90389,3.35382 -4.84179,4.39844 -2.62479,1.4149 -4.48024,1.7209 -7.27149,1.19726 -2.06079,-0.3866 -5.10294,-1.91541 -6.75976,-3.39843 -1.65682,-1.48301 -4.22372,-4.94727 -5.70508,-7.69727 -2.08164,-3.86437 -3.31093,-5.07205 -5.41406,-5.31445 -2.46093,-0.28365 -3.01206,0.30313 -5.76368,6.12695 -3.53678,7.48562 -10.7542,14.77193 -17.79882,17.9707 -3.67251,1.66758 -6.71002,2.15069 -13.7168,2.17969 -6.8453,0.0284 -10.57912,-0.50857 -15.59375,-2.24219 -3.62619,-1.25363 -10.53642,-4.54037 -15.35742,-7.30468 -4.89217,-2.80513 -9.71301,-4.89112 -10.90821,-4.72071 -1.75873,0.25076 -2.11262,0.93023 -1.98632,3.80469 0.0846,1.925 1.5651,7.325 3.29101,12 2.90723,7.87488 3.10859,9.23543 2.73633,18.5 -0.32108,7.99058 -0.91492,11.14053 -2.95508,15.67773 -1.40426,3.12301 -4.48646,7.77613 -6.84961,10.33985 -2.36315,2.56371 -6.43595,5.74527 -9.05078,7.07031 -2.61483,1.32503 -5.22127,3.28112 -5.79101,4.3457 -0.56975,1.06458 -1.03516,2.18618 -1.03516,2.49414 0,0.30797 2.03349,2.62476 4.51953,5.14649 2.48603,2.52174 5.48229,6.4619 6.6582,8.75586 2.67747,5.22318 3.65684,17.16842 1.79493,21.89844 -1.59504,4.05203 -6.82997,9.7784 -8.91797,9.7539 -0.85461,-0.01 -3.53798,-1.36209 -5.96094,-3.0039 -2.42297,-1.6418 -6.24797,-3.4844 -8.5,-4.09375 -5.42697,-1.46841 -14.29742,-0.58718 -19.16602,1.90234 -6.04085,3.08895 -12.16662,9.90595 -14.52539,16.16406 -1.71107,4.54078 -2.02171,7.20296 -1.70703,14.65039 0.32963,7.8011 0.84894,10.04801 3.64063,15.71875 1.79143,3.6389 5.37383,8.73127 7.95898,11.31641 2.6067,2.60671 7.59672,6.05813 11.20313,7.75 5.40445,2.53539 7.76879,3.05613 14.00195,3.08203 6.28942,0.0261 8.45294,-0.43605 13.4043,-2.86719 5.72436,-2.81069 5.94648,-2.84118 7.2539,-1 4.80332,6.76432 10.48434,13.12365 16.51172,18.48047 l 6.94336,6.16992 -2.30664,2.46875 c -1.26845,1.35815 -3.52262,3.10226 -5.00781,3.875 -3.58421,1.86487 -11.564,1.77451 -15.29688,-0.17187 -4.36094,-2.27386 -6.00939,-4.00612 -7.98828,-8.39453 -0.97011,-2.1513 -2.44133,-4.17121 -3.26758,-4.48828 -0.82626,-0.31706 -4.40629,0.58533 -7.95703,2.00585 -3.55074,1.42052 -9.45646,2.83553 -13.12304,3.14258 -3.68335,0.30845 -9.22467,0.0255 -12.38477,-0.63086 -14.20726,-2.95104 -27.47157,-13.51361 -34.16992,-27.21289 -1.9753,-4.03985 -4.32482,-10.26586 -5.2207,-13.83398 -1.2084,-4.81302 -1.49667,-9.20087 -1.11915,-17 0.36795,-7.60144 1.19193,-12.45012 2.97657,-17.51172 1.35745,-3.85 4.13363,-10.30177 6.16797,-14.33789 3.5052,-6.95428 3.61461,-7.46463 2.11718,-9.75 C 121.66412,348.08573 120.35986,347 119.63281,347 c -0.72705,0 -3.9808,-1.718 -7.23047,-3.81836 -7.20097,-4.65422 -12.73206,-12.33336 -14.869137,-20.64258 -0.843095,-3.27805 -1.525678,-8.45305 -1.517578,-11.5 0.02065,-7.74106 2.464629,-17.28586 6.244145,-24.37695 4.4905,-8.42504 15.51439,-19.29861 25.24023,-24.89844 4.4,-2.53338 9.70161,-5.40657 11.78125,-6.38476 2.32504,-1.09361 4.0107,-2.69311 4.37695,-4.15235 0.32759,-1.30523 0.14274,-2.82601 -0.41015,-3.3789 -0.55288,-0.55288 -5.82089,-1.63709 -11.70703,-2.41016 -5.88614,-0.77306 -11.90289,-1.98021 -13.3711,-2.68164 -3.18516,-1.52171 -3.99386,-5.18927 -1.70117,-7.72266 2.57528,-2.84566 9.77836,-4.38627 17.48437,-3.74023 3.77896,0.31681 9.11756,1.54147 11.86329,2.72265 2.74573,1.18118 6.04787,1.99905 7.33789,1.81641 1.90353,-0.26949 2.32075,-0.89732 2.21093,-3.33203 -0.0744,-1.65 -1.81204,-7.27244 -3.86132,-12.49414 -2.69226,-6.86007 -3.86568,-11.57642 -4.23047,-17 -0.54845,-8.15429 0.704,-14.52344 3.55078,-18.03906 2.46182,-3.04022 5.46772,-1.91508 7.49023,2.80468 0.87854,2.05019 2.75205,8.19549 4.16407,13.6543 1.41202,5.45881 3.08115,10.54429 3.70898,11.30078 0.62784,0.7565 2.30449,1.23952 3.72656,1.07422 2.28121,-0.26518 2.7433,-1.00714 3.92383,-6.30078 2.90804,-13.0399 6.45305,-24.32545 9.73633,-31 1.89385,-3.85 5.75661,-10.0802 8.58398,-13.84375 2.82737,-3.76356 7.88477,-9.05875 11.24024,-11.76758 7.0569,-5.69697 21.63835,-13.0985 29.60156,-15.02734 3.025,-0.73271 10.45,-1.31793 16.5,-1.29883 8.92353,0.0282 12.04745,0.44963 16.54883,2.23242 9.61772,3.80915 14.65083,7.6561 18.89648,14.44141 4.47894,7.15817 6.62746,9.76367 8.05078,9.76367 0.54772,0 4.26022,-3.00365 8.25,-6.67383 3.98978,-3.67019 10.85391,-9.01156 15.25391,-11.87109 4.4,-2.85954 12.06349,-6.81474 17.0293,-8.78906 8.96977,-3.56624 18.77129,-5.76058 27.82031,-6.31055 z M 254.70703,485 c 5.30636,0 7.98047,0.62168 13.36914,3.10547 5.57405,2.56925 7.38469,4.04615 10.50195,8.57226 2.07177,3.00812 6.23092,7.66571 9.24219,10.34961 9.28979,8.27985 24.35162,14.98509 33.61133,14.96289 5.74694,-0.0138 14.07692,-4.13433 16.54688,-8.18554 1.10812,-1.81751 2.01557,-4.00297 2.01757,-4.85547 0.008,-3.38802 1.94602,-3.7663 9.33399,-1.82422 10.12939,2.66272 23.69218,3.42139 33.79101,1.88867 4.60853,-0.69945 11.92844,-2.37715 16.26563,-3.72851 l 7.88476,-2.45704 2.11524,2.14454 2.11328,2.14648 -3,2.48047 c -6.51004,5.38432 -10.33633,9.5275 -12.12695,13.13086 -1.4133,2.84406 -1.87305,5.9803 -1.87305,12.76953 0,4.95 0.37872,11.07209 0.8418,13.60547 l 0.84179,4.60742 -8.17382,6.16016 c -17.55729,13.22982 -39.20942,23.99809 -57.77149,28.73242 -10.73488,2.73798 -26.1874,3.85479 -33.07812,2.39062 -2.38739,-0.50728 -7.49124,-2.37448 -11.33985,-4.14843 -5.10683,-2.35388 -8.33667,-4.72841 -11.95703,-8.78711 -3.88946,-4.36036 -4.7923,-5.99244 -4.18164,-7.56055 0.42833,-1.1 0.64394,-8.75 0.48047,-17 -0.22435,-11.32261 -0.64656,-15.35712 -1.72266,-16.45703 -1.05728,-1.08068 -1.71712,-1.16569 -2.55273,-0.33008 -1.67789,1.67789 -2.79475,8.75458 -2.84375,18.01758 -0.0409,7.73 -0.17991,8.25644 -2.29297,8.64648 -16.24442,2.99844 -35.01866,7.42631 -44.88477,10.58594 -6.73415,2.15662 -12.60874,3.69553 -13.05468,3.41992 -1.3577,-0.8391 -0.90381,-20.58021 0.68164,-29.67187 1.96982,-11.29579 5.91786,-23.69235 10.10156,-31.71094 4.84908,-9.29389 13.15549,-19.78624 18.67773,-23.5918 7.09768,-4.89126 14.7208,-7.4082 22.43555,-7.4082 z"
         style="display:inline"
         id="path3068" />
      <path
         d="m 475.9043,577.01367 c -0.87726,-0.008 -2.37409,0.84641 -3.32618,1.89844 -1.66321,1.83783 -1.37286,2.44827 7.4043,15.5625 7.59425,11.34679 9.50477,13.59711 11.32617,13.33789 1.36578,-0.19437 2.30779,-1.13578 2.50196,-2.5 0.40674,-2.85768 -15.67909,-28.27968 -17.90625,-28.29883 z"
         style="display:inline;fill:#9e7049;fill-opacity:1"
         id="path3102" />
      <path
         d="m 475.9043,577.01367 c 2.22716,0.0191 18.31299,25.44115 17.90625,28.29883 -0.19417,1.36422 -1.13618,2.30563 -2.50196,2.5 -1.8214,0.25922 -3.73192,-1.9911 -11.32617,-13.33789 -8.77716,-13.11423 -9.06751,-13.72467 -7.4043,-15.5625 0.95209,-1.05203 2.44892,-1.90644 3.32618,-1.89844 z"
         style="display:inline;fill:#9e7049;fill-opacity:1"
         id="path3101" />
      <path
         d="M 420.08008,496.3418 C 418.45063,496.45254 416,498.03758 416,499.29492 c 0,0.67305 2.4877,4.93936 5.5293,9.48242 4.98453,7.44509 5.73029,8.15321 7.55664,7.17578 1.11446,-0.59644 2.26131,-1.69604 2.54883,-2.44531 0.28752,-0.74927 -1.7543,-4.74033 -4.53907,-8.86719 -2.78477,-4.12684 -5.51114,-7.77884 -6.05859,-8.11718 -0.24837,-0.1535 -0.581,-0.2072 -0.95703,-0.18164 z"
         style="display:inline;fill:#9e7049;fill-opacity:1"
         id="path3099" />
      <path
         d="m 254.70703,485 c -7.71475,0 -15.33787,2.51694 -22.43555,7.4082 -5.52224,3.80556 -13.82865,14.29791 -18.67773,23.5918 -4.1837,8.01859 -8.13174,20.41515 -10.10156,31.71094 -1.58545,9.09166 -2.03934,28.83277 -0.68164,29.67187 0.44594,0.27561 6.32053,-1.2633 13.05468,-3.41992 9.86611,-3.15963 28.64035,-7.5875 44.88477,-10.58594 2.11306,-0.39004 2.25207,-0.91648 2.29297,-8.64648 0.049,-9.263 1.16586,-16.33969 2.84375,-18.01758 0.83561,-0.83561 1.49545,-0.7506 2.55273,0.33008 1.0761,1.09991 1.49831,5.13442 1.72266,16.45703 0.16347,8.25 -0.0521,15.9 -0.48047,17 -0.61066,1.56811 0.29218,3.20019 4.18164,7.56055 3.62036,4.0587 6.8502,6.43323 11.95703,8.78711 3.84861,1.77395 8.95246,3.64115 11.33985,4.14843 6.89072,1.46417 22.34324,0.34736 33.07812,-2.39062 18.56207,-4.73433 40.2142,-15.5026 57.77149,-28.73242 l 8.17382,-6.16016 -0.84179,-4.60742 C 394.87872,546.57209 394.5,540.45 394.5,535.5 c 0,-6.78923 0.45975,-9.92547 1.87305,-12.76953 1.79062,-3.60336 5.61691,-7.74654 12.12695,-13.13086 l 3,-2.48047 -2.11328,-2.14648 -2.11524,-2.14454 -7.88476,2.45704 c -4.33719,1.35136 -11.6571,3.02906 -16.26563,3.72851 -10.09883,1.53272 -23.66162,0.77405 -33.79101,-1.88867 -7.38797,-1.94208 -9.32582,-1.5638 -9.33399,1.82422 -0.002,0.8525 -0.90945,3.03796 -2.01757,4.85547 -2.46996,4.05121 -10.79994,8.17174 -16.54688,8.18554 -9.25971,0.0222 -24.32154,-6.68304 -33.61133,-14.96289 -3.01127,-2.6839 -7.17042,-7.34149 -9.24219,-10.34961 -3.11726,-4.52611 -4.9279,-6.00301 -10.50195,-8.57226 C 262.6875,485.62168 260.01339,485 254.70703,485 Z"
         style="display:inline;fill:#2d420c;fill-opacity:1"
         id="path3098" />
      <path
         d="m 451.77148,503.60547 c -2.34963,-0.0481 -5.71939,0.52018 -7.48828,1.26172 -3.07731,1.29004 -3.19091,1.53337 -2.625,5.66211 0.56664,4.13414 0.3882,4.52 -4.29492,9.20312 -5.10519,5.10519 -15.00597,10.68077 -17.94141,10.10352 -0.93905,-0.18467 -2.1876,-1.09705 -2.77343,-2.02735 -0.81854,-1.29986 -0.61783,-2.18391 0.86133,-3.81836 1.76255,-1.9476 1.79654,-2.35164 0.42187,-4.80078 -0.82566,-1.47103 -2.17568,-2.80609 -3,-2.96484 -0.82431,-0.15875 -3.36071,1.30573 -5.63672,3.25391 -2.45537,2.10171 -4.8357,5.37004 -5.85351,8.03515 -1.73286,4.53741 -1.71504,7.02387 0.16015,22.79883 l 0.69141,5.81055 -5.10938,4.79687 C 392.80848,566.90519 376.35698,577.90003 364.5,584.09961 345.48008,594.04443 324.05624,600 307.30273,600 c -4.88555,0 -11.48785,-0.67848 -14.67187,-1.50781 -3.18403,-0.82933 -8.2609,-2.71834 -11.28125,-4.19727 -6.69448,-3.27796 -15.33134,-11.38121 -18.26758,-17.13672 -1.19431,-2.34105 -2.77034,-4.48562 -3.5,-4.76562 -1.57067,-0.60272 -20.15736,3.49711 -33.58203,7.40625 -9.36142,2.72595 -9.49709,2.81001 -9.28711,5.73437 0.1172,1.63221 2.32812,7.2418 4.91406,12.4668 3.94431,7.96966 6.173,10.96997 13.82813,18.62891 7.97272,7.97668 10.44482,9.77402 19.58398,14.22265 5.75307,2.80039 13.61094,5.81666 17.46094,6.70313 3.85,0.88647 10.6,1.95763 15,2.38086 7.86278,0.75631 12.1156,0.67892 23.94531,-0.4375 9.06312,-0.85533 19.90812,-3.29465 32.05274,-7.21094 20.23684,-6.5258 33.22033,-13.16637 51.6914,-26.43164 5.32933,-3.82734 13.87933,-10.75453 19,-15.39453 l 9.31055,-8.43555 8.01367,0.60547 c 5.84769,0.44217 9.76692,0.15866 14.5,-1.04688 9.92952,-2.5291 18.43146,-6.94592 24.60352,-12.7832 3.08016,-2.91308 6.67702,-7.42028 7.99218,-10.01562 2.58741,-5.10602 3.19876,-12.57664 1.19336,-14.58204 -0.93026,-0.93025 -1.80256,-0.62108 -3.90234,1.39063 -1.48689,1.42454 -3.5339,2.4322 -4.55078,2.23828 -1.01688,-0.19392 -1.98717,-1.3066 -2.1543,-2.47266 -0.16713,-1.16607 1.07037,-4.28704 2.75,-6.93554 1.77968,-2.80627 3.05469,-6.1621 3.05469,-8.04297 0,-2.01325 -0.97493,-4.38548 -2.58984,-6.30469 -1.4239,-1.6922 -2.9765,-3.07617 -3.45118,-3.07617 -0.47469,0 -2.25614,2.025 -3.95898,4.5 -2.26642,3.29413 -3.7622,4.5 -5.58008,4.5 -1.36583,0 -2.72431,-0.62912 -3.01953,-1.39844 -0.29521,-0.76932 0.61877,-3.67939 2.03125,-6.46679 1.58963,-3.13699 2.56836,-6.72964 2.56836,-9.42774 0,-3.34621 -0.57629,-4.8985 -2.47852,-6.68555 -1.7476,-1.64179 -3.73707,-2.3544 -6.75,-2.41601 z"
         style="display:inline;fill:#e5cdb9;fill-opacity:1"
         id="path3100" />
      <path
         d="m 322.42773,470.24805 c -1.19066,-0.0231 -2.00088,0.77727 -2.23632,2.42187 -0.21726,1.51758 0.5909,2.67967 2.75,3.95508 1.68173,0.99342 3.05859,2.15842 3.05859,2.58984 0,0.43141 -0.23858,0.78516 -0.53125,0.78516 -0.29266,0 -2.09266,-0.65229 -4,-1.44922 C 318.21864,477.19279 318,477.22182 318,479.00586 c 0,2.90007 11.23068,11.39462 19.84766,15.01172 4.1697,1.75029 10.74773,4.03646 14.61718,5.08203 9.12333,2.46523 15.40731,1.90858 20.43164,-1.81055 2.07269,-1.53425 5.94075,-4.70809 8.59571,-7.05469 l 4.82617,-4.26757 -8.9082,0.13476 c -6.14887,0.0923 -11.5084,-0.52324 -17.29688,-1.98437 C 354.56054,482.71557 348.58954,482 342.44531,482 c -5.10446,0 -9.9447,-0.25393 -10.7539,-0.56445 -0.85813,-0.3293 -1.26524,-1.34889 -0.97852,-2.44532 0.32276,-1.23423 -0.72295,-3.13062 -3.04492,-5.52148 -2.0511,-2.11195 -3.89082,-3.19457 -5.24024,-3.2207 z"
         style="display:inline;fill:#08aaf2;fill-opacity:1"
         id="path3097" />
      <path
         d="m 430.92578,445 c 0.004,-5.1e-4 0.008,0 0.0117,0 1.73173,0 2.39368,11.35243 1.16602,20 -0.82517,5.81251 -1.97966,9.67753 -3.65235,12.22461 -3.31104,5.04187 -11.60282,11.45266 -19.29492,14.91797 -6.35004,2.86071 -8.15625,3.36429 -8.15625,2.27539 0,-0.31994 1.53078,-2.45744 3.40234,-4.75 1.87155,-2.29257 5.26668,-7.98749 7.54297,-12.65625 2.2763,-4.66875 5.19849,-9.61875 6.49414,-11 1.29564,-1.38124 4.43172,-6.67422 6.96875,-11.76172 2.5172,-5.04775 4.98598,-9.18567 5.51758,-9.25 z"
         style="display:inline"
         id="path3092" />
      <path
         d="m 327.82617,449.90234 c -0.17964,0.009 -0.29745,0.0528 -0.3457,0.13086 -0.96851,1.56708 2.54367,7.10376 7.55664,11.91016 5.26587,5.04886 20.03752,13.62574 25.82226,14.99414 5.84871,1.38353 11.08655,1.18109 14.77735,-0.57031 3.82503,-1.8151 10.83895,-9.36408 13.77344,-14.82422 1.05088,-1.95535 1.60444,-3.86235 1.22851,-4.23828 -0.37593,-0.37593 -3.74345,0.30164 -7.48242,1.50586 -3.73898,1.20421 -8.01473,2.18945 -9.50195,2.18945 -1.48722,0 -5.28093,-0.94692 -8.42969,-2.10352 -3.14876,-1.15659 -9.86137,-2.45179 -14.91797,-2.8789 -7.05447,-0.59586 -10.71567,-1.48728 -15.73047,-3.83399 -3.03292,-1.41927 -5.77995,-2.33149 -6.75,-2.28125 z"
         style="display:inline"
         id="path3095" />
      <path
         d="m 327.82617,449.90234 c 0.97005,-0.0502 3.71708,0.86198 6.75,2.28125 5.0148,2.34671 8.676,3.23813 15.73047,3.83399 5.0566,0.42711 11.76921,1.72231 14.91797,2.8789 3.14876,1.1566 6.94247,2.10352 8.42969,2.10352 1.48722,0 5.76297,-0.98524 9.50195,-2.18945 3.73897,-1.20422 7.10649,-1.88179 7.48242,-1.50586 0.37593,0.37593 -0.17763,2.28293 -1.22851,4.23828 -2.93449,5.46014 -9.94841,13.00912 -13.77344,14.82422 -3.6908,1.7514 -8.92864,1.95384 -14.77735,0.57031 -5.78474,-1.3684 -20.55639,-9.94528 -25.82226,-14.99414 -5.01297,-4.8064 -8.52515,-10.34308 -7.55664,-11.91016 0.0482,-0.0781 0.16606,-0.12155 0.3457,-0.13086 z"
         style="display:inline;fill:#f24c08;fill-opacity:1"
         id="path3094" />
      <path
         d="m 430.92578,445 c -0.5316,0.0643 -3.00038,4.20225 -5.51758,9.25 -2.53703,5.0875 -5.67311,10.38048 -6.96875,11.76172 -1.29565,1.38125 -4.21784,6.33125 -6.49414,11 -2.27629,4.66876 -5.67142,10.36368 -7.54297,12.65625 -1.87156,2.29256 -3.40234,4.43006 -3.40234,4.75 0,1.0889 1.80621,0.58532 8.15625,-2.27539 7.6921,-3.46531 15.98388,-9.8761 19.29492,-14.91797 1.67269,-2.54708 2.82718,-6.4121 3.65235,-12.22461 1.22766,-8.64757 0.56571,-20 -1.16602,-20 -0.004,0 -0.008,-5.1e-4 -0.0117,0 z"
         style="display:inline;fill:#f24c08;fill-opacity:1"
         id="path3093" />
      <path
         d="m 381.71484,412.29102 c -3.05156,-0.0111 -5.69374,1.05611 -7.67773,3.16796 -1.94845,2.07402 -2.18227,3.08397 -1.60938,6.9043 0.70183,4.68011 2.38505,7.00578 4.22071,5.83008 0.59492,-0.38104 1.38383,-1.66487 1.7539,-2.85156 0.37006,-1.18669 1.37861,-2.42718 2.24024,-2.75782 2.64456,-1.01481 9.34133,1.60813 11.91601,4.66797 1.34242,1.59538 2.44141,3.80457 2.44141,4.90821 0,1.17169 0.5201,1.82549 1.25,1.57031 0.80908,-0.28287 1.20011,-2.26553 1.10937,-5.61914 -0.19123,-7.0671 -3.68829,-12.3075 -9.76171,-14.62696 -2.07297,-0.79167 -4.05188,-1.18668 -5.88282,-1.19335 z"
         style="display:inline"
         id="path3091" />
      <path
         d="m 304.7832,405.4043 c -0.82819,0.0274 -2.46773,5.03232 -4.85937,14.83789 -0.65828,2.6989 -0.97499,8.94584 -0.73438,14.5 0.28794,6.64688 0.97568,10.80154 2.15625,13.0332 2.55406,4.82801 10.44498,12.34663 16.1543,15.39063 4.91039,2.61805 8.99111,3.61202 8.33398,2.03125 -0.18333,-0.44102 -2.92319,-5.95352 -6.08789,-12.25 -4.76379,-9.47806 -5.9074,-12.76915 -6.64453,-19.12696 -0.52365,-4.51645 -1.98444,-10.06961 -3.54687,-13.48242 -1.46114,-3.19154 -2.92231,-7.73531 -3.2461,-10.09766 -0.3238,-2.36234 -0.95799,-4.52328 -1.41015,-4.80273 -0.0368,-0.0227 -0.0745,-0.0346 -0.11524,-0.0332 z"
         style="display:inline"
         id="path3090" />
      <path
         d="m 398.80078,401.53125 c -9.09294,-0.0367 -11.52233,1.34186 -7.1582,4.06445 7.12428,4.44452 11.2562,8.57471 12.9082,12.90039 1.37202,3.59261 1.56582,5.95661 0.96289,11.75 -0.41517,3.98931 -0.91436,11.42295 -1.10937,16.51953 -0.26658,6.96688 -0.9804,10.83455 -2.87891,15.58008 -1.38885,3.47157 -2.52539,6.61308 -2.52539,6.98242 0,1.38738 2.51856,0.58528 6.22656,-1.98437 4.76361,-3.30118 9.85058,-10.14245 13.73633,-18.4707 2.10782,-4.51765 3.30369,-9.18295 4.10547,-16.02539 0.98068,-8.36918 0.90605,-10.42689 -0.5625,-15.47852 -0.9315,-3.20425 -2.5396,-7.0107 -3.57227,-8.46094 -1.03266,-1.45024 -4.25321,-3.69736 -7.15625,-4.99218 -4.02815,-1.79666 -7.10022,-2.36106 -12.97656,-2.38477 z"
         style="display:inline"
         id="path3089" />
      <path
         d="m 340.47852,396.46484 c -1.18797,-0.0556 -4.09102,0.5249 -6.97852,1.42383 -6.93443,2.1588 -8.53489,4.17995 -11.03516,13.93945 -2.27032,8.86192 -0.83579,14.25327 5.80469,21.83399 C 331.31157,437.13488 339.4299,443 341.19531,443 341.63763,443 342,442.54524 342,441.98828 c 0,-0.55696 -0.9,-4.26099 -2,-8.23047 -1.1,-3.96948 -2,-9.06698 -2,-11.32812 0,-2.26114 0.66561,-6.32158 1.47852,-9.02149 0.81292,-2.69991 1.7699,-7.4877 2.12695,-10.64062 0.4989,-4.40556 0.32988,-5.85057 -0.72852,-6.24024 -0.0947,-0.0349 -0.22872,-0.0546 -0.39843,-0.0625 z"
         style="display:inline"
         id="path3088" />
      <path
         d="m 340.47852,396.46484 c 0.16971,0.008 0.30375,0.0276 0.39843,0.0625 1.0584,0.38967 1.22742,1.83468 0.72852,6.24024 -0.35705,3.15292 -1.31403,7.94071 -2.12695,10.64062 -0.81291,2.69991 -1.47852,6.76035 -1.47852,9.02149 0,2.26114 0.9,7.35864 2,11.32812 1.1,3.96948 2,7.67351 2,8.23047 0,0.55696 -0.36237,1.01172 -0.80469,1.01172 -1.76541,0 -9.88374,-5.86512 -12.92578,-9.33789 -6.64048,-7.58072 -8.07501,-12.97207 -5.80469,-21.83399 2.50027,-9.7595 4.10073,-11.78065 11.03516,-13.93945 2.8875,-0.89893 5.79055,-1.47939 6.97852,-1.42383 z"
         style="display:inline;fill:#f24c08;fill-opacity:1"
         id="path3087" />
      <path
         d="m 386.66797,387.26562 c -1.54136,-0.10137 -3.21204,-0.10999 -4.87891,0.004 -4.60575,0.31472 -8.52739,1.34187 -12.5,3.27539 -7.01241,3.41303 -17.06405,13.19315 -20.13281,19.58985 -1.22295,2.54919 -2.48539,6.84103 -2.80469,9.5371 -0.48258,4.07457 -0.0452,6.1617 2.58594,12.36524 2.05572,4.84686 4.8118,9.16723 7.86328,12.32422 2.58427,2.67361 6.04922,5.46858 7.69922,6.21094 4.19784,1.88866 12.11594,1.76649 15.50977,-0.23829 1.55049,-0.9159 3.3506,-2.8284 4,-4.25 1.5782,-3.45487 2.5415,-13.08398 1.30859,-13.08398 -0.52897,0 -2.73015,1.33796 -4.89063,2.97266 -4.01461,3.03761 -8.14354,3.78487 -11.36914,2.05859 -0.99543,-0.53274 -3.21518,-3.15998 -4.93359,-5.83789 -2.33381,-3.63692 -3.125,-6.0258 -3.125,-9.44141 0,-3.89871 0.62639,-5.33805 4.25,-9.76367 2.3375,-2.85486 5.47428,-7.01453 6.9707,-9.24414 3.29251,-4.90569 10.73108,-10.37215 16.23633,-11.93359 2.22385,-0.63074 4.45302,-1.50456 4.95508,-1.94141 1.33494,-1.16153 -2.12007,-2.29938 -6.74414,-2.60352 z"
         style="display:inline"
         id="path3086" />
      <path
         style="display:inline;fill:#08aaf2;fill-opacity:1"
         d="m 381.71484,412.29102 c 1.83094,0.007 3.80985,0.40168 5.88282,1.19335 6.07342,2.31946 9.57048,7.55986 9.76171,14.62696 0.0907,3.35361 -0.30029,5.33627 -1.10937,5.61914 -0.7299,0.25518 -1.25,-0.39862 -1.25,-1.57031 0,-1.10364 -1.09899,-3.31283 -2.44141,-4.90821 -2.57468,-3.05984 -9.27145,-5.68278 -11.91601,-4.66797 -0.86163,0.33064 -1.87018,1.57113 -2.24024,2.75782 -0.37007,1.18669 -1.15898,2.47052 -1.7539,2.85156 -1.83566,1.1757 -3.51888,-1.14997 -4.22071,-5.83008 -0.57289,-3.82033 -0.33907,-4.83028 1.60938,-6.9043 1.98399,-2.11185 4.62617,-3.17908 7.67773,-3.16796 z"
         id="path3105" />
      <path
         style="display:inline;fill:#08aaf2;fill-opacity:1"
         d="m 304.7832,405.4043 c 0.0407,-10e-4 0.0784,0.0105 0.11524,0.0332 0.45216,0.27945 1.08635,2.44039 1.41015,4.80273 0.32379,2.36235 1.78496,6.90612 3.2461,10.09766 1.56243,3.41281 3.02322,8.96597 3.54687,13.48242 0.73713,6.35781 1.88074,9.6489 6.64453,19.12696 3.1647,6.29648 5.90456,11.80898 6.08789,12.25 0.65713,1.58077 -3.42359,0.5868 -8.33398,-2.03125 -5.70932,-3.044 -13.60024,-10.56262 -16.1543,-15.39063 -1.18057,-2.23166 -1.86831,-6.38632 -2.15625,-13.0332 -0.24061,-5.55416 0.0761,-11.8011 0.73438,-14.5 2.39164,-9.80557 4.03118,-14.81048 4.85937,-14.83789 z"
         id="path3104" />
      <path
         style="display:inline;fill:#f4ed09;fill-opacity:1"
         d="m 398.80078,401.53125 c 5.87634,0.0237 8.94841,0.58811 12.97656,2.38477 2.90304,1.29482 6.12359,3.54194 7.15625,4.99218 1.03267,1.45024 2.64077,5.25669 3.57227,8.46094 1.46855,5.05163 1.54318,7.10934 0.5625,15.47852 -0.80178,6.84244 -1.99765,11.50774 -4.10547,16.02539 -3.88575,8.32825 -8.97272,15.16952 -13.73633,18.4707 -3.708,2.56965 -6.22656,3.37175 -6.22656,1.98437 0,-0.36934 1.13654,-3.51085 2.52539,-6.98242 1.89851,-4.74553 2.61233,-8.6132 2.87891,-15.58008 0.19501,-5.09658 0.6942,-12.53022 1.10937,-16.51953 0.60293,-5.79339 0.40913,-8.15739 -0.96289,-11.75 -1.652,-4.32568 -5.78392,-8.45587 -12.9082,-12.90039 -4.36413,-2.72259 -1.93474,-4.10115 7.1582,-4.06445 z"
         id="path3103" />
      <path
         style="display:inline;fill:#f4ed09;fill-opacity:1"
         d="m 386.66797,387.26562 c 4.62407,0.30414 8.07908,1.44199 6.74414,2.60352 -0.50206,0.43685 -2.73123,1.31067 -4.95508,1.94141 -5.50525,1.56144 -12.94382,7.0279 -16.23633,11.93359 -1.49642,2.22961 -4.6332,6.38928 -6.9707,9.24414 -3.62361,4.42562 -4.25,5.86496 -4.25,9.76367 0,3.41561 0.79119,5.80449 3.125,9.44141 1.71841,2.67791 3.93816,5.30515 4.93359,5.83789 3.2256,1.72628 7.35453,0.97902 11.36914,-2.05859 2.16048,-1.6347 4.36166,-2.97266 4.89063,-2.97266 1.23291,0 0.26961,9.62911 -1.30859,13.08398 -0.6494,1.4216 -2.44951,3.3341 -4,4.25 -3.39383,2.00478 -11.31193,2.12695 -15.50977,0.23829 -1.65,-0.74236 -5.11495,-3.53733 -7.69922,-6.21094 -3.05148,-3.15699 -5.80756,-7.47736 -7.86328,-12.32422 -2.63111,-6.20354 -3.06852,-8.29067 -2.58594,-12.36524 0.3193,-2.69607 1.58174,-6.98791 2.80469,-9.5371 3.06876,-6.3967 13.1204,-16.17682 20.13281,-19.58985 3.97261,-1.93352 7.89425,-2.96067 12.5,-3.27539 1.66687,-0.1139 3.33755,-0.10528 4.87891,-0.004 z"
         id="path3085" />
      <path
         d="m 165.32812,380.22461 c -0.57517,0.0206 -1.12195,0.0764 -1.63085,0.17187 -4.71923,0.88534 -8.69727,4.16781 -8.69727,7.17579 0,1.39542 0.58486,2.42773 1.37695,2.42773 0.75783,0 2.89715,-0.63321 4.75196,-1.4082 3.31468,-1.38496 8.41644,-1.13624 9.40234,0.45898 0.27596,0.44651 -0.63154,2.47996 -2.01563,4.51953 -1.38407,2.03957 -2.58637,4.65761 -2.67187,5.81836 -0.29074,3.94523 0.30231,7.08463 1.48047,7.83399 0.64622,0.41102 1.42406,0.75372 1.72656,0.76171 1.19548,0.0333 2.94922,-2.48513 2.94922,-4.23437 0,-3.19653 2.93196,-7.75 4.99023,-7.75 1.06652,0 2.46349,1.0125 3.10352,2.25 3.37643,6.5284 6.90625,6.95624 6.90625,0.83789 0,-4.34022 -4.31817,-11.75583 -8.63086,-14.82227 -3.59397,-2.55541 -9.01479,-4.18504 -13.04102,-4.04101 z"
         style="display:inline"
         id="path3084" />
      <path
         d="m 395.10742,361 c -1.9685,0 -5.9791,1.21426 -8.91406,2.69922 -5.10705,2.58392 -6.4631,3.86288 -14.03516,13.24414 l -3.34179,4.14062 2.84179,-0.79101 c 1.56299,-0.43565 10.77427,-0.71682 20.46875,-0.62305 17.03547,0.16478 17.80649,0.26242 23,2.89258 6.0708,3.07443 11.87305,7.24663 11.87305,8.53711 0,0.4742 -2.025,0.58532 -4.5,0.24609 -2.88226,-0.39506 -4.5,-0.23704 -4.5,0.43946 0,0.5809 2.43227,4.58591 5.4043,8.90039 3.26588,4.74108 6.06999,10.21273 7.08789,13.83007 0.92632,3.29188 2.95051,7.79716 4.49804,10.01172 4.70351,6.73082 8.97968,15.97245 9.64844,20.85157 0.34838,2.54176 1.00887,4.62109 1.46875,4.62109 0.45988,0 1.63378,-2.5875 2.60742,-5.75 1.30562,-4.24078 1.77169,-9.16216 1.77735,-18.75 0.006,-10.65754 -0.32525,-13.6705 -1.84375,-16.72461 -1.01874,-2.04897 -3.5367,-5.64897 -5.59375,-8 -2.05706,-2.35104 -4.03074,-5.46024 -4.38672,-6.9082 -0.35598,-1.44796 -3.45617,-5.23227 -6.88867,-8.41016 -5.40783,-5.00669 -5.87579,-5.70816 -3.50977,-5.25586 4.06529,0.77713 3.44086,-1.49038 -1.51953,-5.51758 C 418.82228,368.24731 402.06326,361 395.10742,361 Z"
         style="display:inline"
         id="path3083" />
      <path
         d="m 395.10742,361 c 6.95584,0 23.71486,7.24731 31.64258,13.68359 4.96039,4.0272 5.58482,6.29471 1.51953,5.51758 -2.36602,-0.4523 -1.89806,0.24917 3.50977,5.25586 3.4325,3.17789 6.53269,6.9622 6.88867,8.41016 0.35598,1.44796 2.32966,4.55716 4.38672,6.9082 2.05705,2.35103 4.57501,5.95103 5.59375,8 1.5185,3.05411 1.84975,6.06707 1.84375,16.72461 -0.006,9.58784 -0.47173,14.50922 -1.77735,18.75 -0.97364,3.1625 -2.14754,5.75 -2.60742,5.75 -0.45988,0 -1.12037,-2.07933 -1.46875,-4.62109 -0.66876,-4.87912 -4.94493,-14.12075 -9.64844,-20.85157 -1.54753,-2.21456 -3.57172,-6.71984 -4.49804,-10.01172 -1.0179,-3.61734 -3.82201,-9.08899 -7.08789,-13.83007 -2.97203,-4.31448 -5.4043,-8.31949 -5.4043,-8.90039 0,-0.6765 1.61774,-0.83452 4.5,-0.43946 2.475,0.33923 4.5,0.22811 4.5,-0.24609 0,-1.29048 -5.80225,-5.46268 -11.87305,-8.53711 -5.19351,-2.63016 -5.96453,-2.7278 -23,-2.89258 -9.69448,-0.0938 -18.90576,0.1874 -20.46875,0.62305 l -2.84179,0.79101 3.34179,-4.14062 c 7.57206,-9.38126 8.92811,-10.66022 14.03516,-13.24414 C 389.12832,362.21426 393.13892,361 395.10742,361 Z"
         style="display:inline;fill:#f24c08;fill-opacity:1"
         id="path3082" />
      <path
         d="m 235.50781,357 c -4.59212,0 -10.7475,2.7887 -15.25781,6.91406 -2.23108,2.04066 -3.25,3.87954 -3.25,5.86328 0,1.58934 0.29935,3.18998 0.66602,3.55664 C 218.92197,374.58994 220,373.99977 220,372.05664 220,369.7128 223.5916,367 226.69531,367 c 1.23808,0 5.46386,1.56356 9.39063,3.47461 5.54616,2.69915 7.5616,3.24928 9.02734,2.46484 2.19312,-1.17372 2.50629,-2.93945 0.52149,-2.93945 -2.16631,0 -6.36733,-3.75794 -8.11329,-7.25781 -1.48652,-2.97978 -1.47846,-3.30123 0.12891,-4.47657 1.5061,-1.10129 1.2288,-1.26562 -2.14258,-1.26562 z"
         style="display:inline"
         id="path3080" />
      <path
         d="m 389.04492,321.08203 c -0.35792,0.007 -0.78023,0.28219 -1.40039,0.79688 -2.3293,1.93315 -2.03852,5.73167 0.57813,7.56445 1.22237,0.85618 3.9075,1.55664 5.96679,1.55664 h 3.74414 l -3.21679,-3.31641 c -1.76917,-1.82408 -3.71472,-4.18452 -4.32227,-5.24414 -0.5353,-0.93362 -0.88942,-1.36658 -1.34961,-1.35742 z"
         style="display:inline"
         id="path3079" />
      <path
         d="m 266.66992,317.33008 c -1.31639,-0.0536 -2.75663,0.18062 -3.60156,0.63281 C 260.0655,319.56997 258,324.26545 258,329.48242 c 0,7.98981 4.25756,15.33099 10.5,18.10547 1.65,0.73334 3.0915,1.35155 3.20312,1.37305 0.11163,0.0215 1.31794,-0.4685 2.68165,-1.08985 1.3637,-0.62135 3.04546,-2.49421 3.73632,-4.16211 1.71195,-4.13301 1.46441,-11.37778 -0.55468,-16.20898 -0.91944,-2.2 -2.83665,-5.2154 -4.25977,-6.70117 -1.42312,-1.48578 -3.84823,-2.97807 -5.38867,-3.31641 -0.38511,-0.0846 -0.80925,-0.13448 -1.24805,-0.15234 z"
         style="display:inline"
         id="path3078" />
      <path
         d="m 316.98047,305 c -2.69,0 -3.47465,3.91822 -2.12695,10.62891 1.30771,6.51159 6.70307,18.26364 8.74414,19.04687 0.78998,0.30314 3.85898,-0.71713 6.82031,-2.26758 4.65909,-2.43935 5.73578,-2.65929 7.98437,-1.63476 2.25637,1.02807 2.59766,1.79583 2.59766,5.83789 0,4.26834 -0.41973,5.06825 -5.04297,9.61914 -4.04413,3.98084 -4.811,5.24173 -3.87695,6.36719 0.64049,0.77175 1.5739,1.40234 2.07422,1.40234 0.50032,0 2.35711,-0.61969 4.12695,-1.37695 3.89148,-1.66505 8.20689,-6.1066 9.6543,-9.9375 1.51355,-4.00595 1.31638,-10.2973 -0.42969,-13.67383 -0.82186,-1.5893 -2.49715,-3.59278 -3.72266,-4.45117 -2.89296,-2.02628 -10.03753,-1.99749 -14.00976,0.0566 -2.91935,1.50965 -3.21447,1.50012 -4.41992,-0.14844 -1.33223,-1.82193 -3.42428,-7.79025 -5.33594,-15.21875 -0.81474,-3.16595 -1.59016,-4.25 -3.03711,-4.25 z"
         style="display:inline"
         id="path3077" />
      <path
         d="m 360.70508,294 c -2.65414,0 -4.08732,0.67 -5.63281,2.63477 -1.59132,2.02303 -2.06769,4.05482 -2.05079,8.75 0.0276,7.68278 2.68851,13.85028 7.16993,16.61718 3.81763,2.35707 7.42662,1.95573 10.02734,-1.11523 4.35727,-5.14509 2.95937,-17.43414 -2.66016,-23.39258 C 364.99327,294.7741 363.47626,294 360.70508,294 Z"
         style="display:inline"
         id="path3075" />
      <path
         d="m 264.10156,283.26172 c -3.28488,-0.18965 -7.88896,1.00998 -11.6582,3.21875 -7.79072,4.56534 -16.35768,16.07873 -16.42188,22.07031 -0.0121,1.1275 0.53098,2.60324 1.20704,3.2793 0.67605,0.67605 1.88538,1.10135 2.68554,0.94726 0.80017,-0.1541 3.28324,-2.95681 5.51953,-6.23047 2.23628,-3.27366 5.99875,-7.42433 8.35938,-9.22265 2.36063,-1.79832 6.18563,-3.77579 8.5,-4.39453 2.31437,-0.61875 4.76953,-1.58682 5.45703,-2.15039 1.99236,-1.63321 1.48337,-5.58523 -0.88281,-6.85157 -0.72169,-0.38623 -1.67067,-0.60279 -2.76563,-0.66601 z"
         style="display:inline"
         id="path3073" />
      <path
         d="m 355.5,263.59961 c -4.86274,-0.04 -7.9923,0.4782 -10.25,1.69726 -2.51887,1.36009 -3.25,2.40913 -3.25,4.66211 0,3.66322 2.39726,4.54923 8.12891,3.00586 2.32544,-0.62618 6.06167,-0.8611 8.30078,-0.52148 2.2391,0.33961 6.32031,1.94661 9.07031,3.57031 2.75,1.6237 5.47328,2.95975 6.05078,2.96875 1.41972,0.0231 3.44922,-2.09841 3.44922,-3.60547 0,-2.31628 -4.99761,-7.15557 -9.74414,-9.43554 -3.49761,-1.68006 -6.60825,-2.2994 -11.75586,-2.3418 z"
         style="display:inline"
         id="path3072" />
      <path
         d="m 324.65625,244 c 0.004,-6e-4 0.008,0 0.0117,0 0.24785,0 4.1356,1.76979 8.64062,3.93359 4.50503,2.1638 10.89141,4.61899 14.19141,5.45508 9.13094,2.31342 18.33563,2.94409 24.95898,1.71094 4.65126,-0.86598 6.22447,-0.83284 7.16797,0.14648 1.42864,1.48289 6.2824,17.35016 9.40625,30.75391 2.18946,9.39447 4.49814,15.26706 9.42969,23.98437 1.39534,2.4665 2.53711,5.19443 2.53711,6.0625 0,0.86807 2.94406,4.64136 6.54297,8.38477 3.59891,3.74342 7.65409,8.99463 9.00976,11.66992 2.99168,5.9038 5.44727,14.97165 5.44727,20.10938 0,2.08444 -0.47152,3.78906 -1.04883,3.78906 -0.57731,0 -2.48981,-0.75468 -4.25,-1.67773 -1.76019,-0.92304 -7.00115,-2.87287 -11.64648,-4.33204 -8.21909,-2.58174 -8.51715,-2.78573 -11.08789,-7.57226 C 390.80878,340.53798 384.02388,335 379.98047,335 c -1.57479,0 -3.1339,0.43989 -3.4668,0.97852 -0.33289,0.53864 -0.14351,1.84395 0.42188,2.90039 0.85676,1.60086 0.39093,2.49714 -2.79883,5.3789 -6.23613,5.63397 -15.50157,11.5179 -26.40235,16.76563 -11.31959,5.44934 -23.49804,9.23992 -37.20507,11.58203 -11.72333,2.00316 -41.97832,3.09452 -42.9336,1.54883 -0.37851,-0.61243 -0.21994,-1.98903 0.35352,-3.06055 1.34809,-2.51893 0.3395,-5.09375 -1.9961,-5.09375 -1.19552,0 -4.30171,3.56289 -8.93554,10.25 -3.90651,5.6375 -7.366,11.2945 -7.6875,12.57227 -0.32149,1.27776 -0.0788,2.8274 0.53711,3.44335 0.82656,0.82656 1.92784,0.52349 4.20508,-1.16015 1.69702,-1.25466 3.1939,-2.12929 3.32617,-1.94336 0.13227,0.18593 1.00792,3.18732 1.94726,6.66992 0.93934,3.48259 3.0416,8.97355 4.67188,12.20313 1.63029,3.22958 5.74132,8.84115 9.13476,12.46875 3.39345,3.62761 8.662,8.0516 11.70899,9.83203 l 5.54101,3.23828 1.25391,8.67969 c 0.68928,4.77465 2.36109,11.87117 3.7168,15.76953 1.35572,3.89836 4.33039,10.22641 6.60937,14.0625 2.27898,3.83609 6.92052,9.94413 10.31445,13.57226 3.39395,3.62813 9.44099,8.80318 13.4375,11.5 5.54678,3.74293 7.26563,5.45611 7.26563,7.23828 0,3.45494 -3.58618,7.39555 -7.79492,8.56446 -2.03748,0.56588 -4.15508,0.99989 -4.70508,0.96679 -3.14701,-0.18956 -12.49525,-3.33862 -16.89453,-5.6914 -2.80755,-1.50151 -8.36114,-5.89008 -12.33985,-9.75196 l -7.23437,-7.02148 0.61719,-6.5957 c 0.75024,-8.03407 -0.9399,-15.85347 -4.06055,-18.78516 -1.56698,-1.47211 -5.00415,-2.6007 -11.17578,-3.67187 -10.89999,-1.89185 -21.14446,-5.24402 -30.69531,-10.04493 -14.19657,-7.13616 -24.33379,-15.26162 -32.38086,-25.95312 -3.00904,-3.99788 -5.80824,-8.53803 -6.22071,-10.08984 -1.01987,-3.83697 -4.31435,-4.17377 -8.26953,-0.84571 -5.58146,4.69649 -10.71858,6.72266 -17.03711,6.72266 -4.32514,0 -7.30567,-0.69647 -11.27539,-2.63867 -2.96787,-1.45204 -6.84377,-4.28934 -8.61328,-6.30469 -1.76951,-2.01536 -4.36175,-6.16084 -5.75976,-9.21094 -2.02143,-4.41026 -2.55447,-7.18278 -2.60157,-13.54492 -0.0519,-7.00545 0.28735,-8.58645 2.71875,-12.72266 3.72611,-6.33874 10.04568,-10.0625 17.07813,-10.0625 5.25357,0 8.57187,1.261 15.25586,5.79688 2.01693,1.36872 4.5232,2.48828 5.56836,2.48828 2.78934,0 8.92508,-3.39918 12.01758,-6.6582 1.48301,-1.56287 3.57512,-4.8668 4.65039,-7.3418 3.01129,-6.93123 3.51295,-13.51875 1.65234,-21.69922 -1.13035,-4.96978 -2.84512,-8.89014 -5.62695,-12.86133 -2.20068,-3.14158 -3.63525,-6.00973 -3.1875,-6.375 0.44776,-0.36526 2.98487,-2.38652 5.63867,-4.49218 2.6538,-2.10565 6.35478,-6.13435 8.22265,-8.95118 1.86789,-2.81684 4.36408,-7.82109 5.54688,-11.12109 1.62983,-4.54717 2.1661,-8.42138 2.2168,-16 0.0368,-5.5 -0.43083,-11.68401 -1.03907,-13.74219 -0.60824,-2.05818 -0.74219,-3.96697 -0.29687,-4.24219 0.44531,-0.27522 3.39211,0.63998 6.54687,2.03516 9.16436,4.05292 17.91884,5.72624 26.89063,5.13672 6.64633,-0.43671 9.23171,-1.17528 16.17383,-4.61523 5.63849,-2.79398 9.55923,-5.56567 12.33984,-8.72461 2.24131,-2.54626 4.07422,-5.01572 4.07422,-5.48829 0,-1.78652 2.39308,-0.73561 6.23828,2.73829 2.1899,1.97844 5.49324,4.22844 7.33984,5 4.64673,1.94153 12.13174,1.7159 17.03711,-0.51172 4.48931,-2.03867 8.83536,-7.00553 9.91602,-11.33594 0.37155,-1.48887 0.873,-2.71216 1.125,-2.75 z m 46.37695,113.09961 c 0.24272,-0.0144 0.42251,0.0221 0.51563,0.11523 0.37249,0.37249 0.12172,3.06329 -0.55664,5.98047 -1.02418,4.40435 -2.17318,6.1927 -6.77735,10.53906 C 358.14931,379.46025 345.30558,386.53223 335,389.82227 326.83107,392.43019 318.07581,394 311.69336,394 c -3.68364,0 -6.4283,-0.81819 -10.79492,-3.21875 l -5.85547,-3.21875 -3.40625,3.71875 c -1.87354,2.04544 -4.02067,3.71684 -4.77149,3.71484 -2.28931,-0.006 -7.46496,-3.62465 -9.72656,-6.80078 C 275.96246,386.54348 275,384.4733 275,383.5957 275,382.27201 276.32159,382 282.75586,382 c 10.17583,0 30.68108,-2.47519 40.79101,-4.92383 14.71364,-3.56365 28.17701,-9.25639 44.13868,-18.66211 1.314,-0.7743 2.61952,-1.27135 3.34765,-1.31445 z"
         style="display:inline;fill:#080400;fill-opacity:1"
         id="path3070" />
      <path
         d="m 324.65625,244 c -0.252,0.0378 -0.75345,1.26113 -1.125,2.75 -1.08066,4.33041 -5.42671,9.29727 -9.91602,11.33594 -4.90537,2.22762 -12.39038,2.45325 -17.03711,0.51172 -1.8466,-0.77156 -5.14994,-3.02156 -7.33984,-5 -3.8452,-3.4739 -6.23828,-4.52481 -6.23828,-2.73829 0,0.47257 -1.83291,2.94203 -4.07422,5.48829 -2.78061,3.15894 -6.70135,5.93063 -12.33984,8.72461 -6.94212,3.43995 -9.5275,4.17852 -16.17383,4.61523 -8.97179,0.58952 -17.72627,-1.0838 -26.89063,-5.13672 -3.15476,-1.39518 -6.10156,-2.31038 -6.54687,-2.03516 -0.44532,0.27522 -0.31137,2.18401 0.29687,4.24219 0.60824,2.05818 1.07585,8.24219 1.03907,13.74219 -0.0507,7.57862 -0.58697,11.45283 -2.2168,16 -1.1828,3.3 -3.67899,8.30425 -5.54688,11.12109 -1.86787,2.81683 -5.56885,6.84553 -8.22265,8.95118 -2.6538,2.10566 -5.19091,4.12692 -5.63867,4.49218 -0.44775,0.36527 0.98682,3.23342 3.1875,6.375 2.78183,3.97119 4.4966,7.89155 5.62695,12.86133 1.86061,8.18047 1.35895,14.76799 -1.65234,21.69922 -1.07527,2.475 -3.16738,5.77893 -4.65039,7.3418 -3.0925,3.25902 -9.22824,6.6582 -12.01758,6.6582 -1.04516,0 -3.55143,-1.11956 -5.56836,-2.48828 -6.68399,-4.53588 -10.00229,-5.79688 -15.25586,-5.79688 -7.03245,0 -13.35202,3.72376 -17.07813,10.0625 -2.4314,4.13621 -2.77066,5.71721 -2.71875,12.72266 0.0471,6.36214 0.58014,9.13466 2.60157,13.54492 1.39801,3.0501 3.99025,7.19558 5.75976,9.21094 1.76951,2.01535 5.64541,4.85265 8.61328,6.30469 3.96972,1.9422 6.95025,2.63867 11.27539,2.63867 6.31853,0 11.45565,-2.02617 17.03711,-6.72266 3.95518,-3.32806 7.24966,-2.99126 8.26953,0.84571 0.41247,1.55181 3.21167,6.09196 6.22071,10.08984 8.04707,10.6915 18.18429,18.81696 32.38086,25.95312 9.55085,4.80091 19.79532,8.15308 30.69531,10.04493 6.17163,1.07117 9.6088,2.19976 11.17578,3.67187 3.12065,2.93169 4.81079,10.75109 4.06055,18.78516 l -0.61719,6.5957 7.23437,7.02148 c 3.97871,3.86188 9.5323,8.25045 12.33985,9.75196 4.39928,2.35278 13.74752,5.50184 16.89453,5.6914 0.55,0.0331 2.6676,-0.40091 4.70508,-0.96679 4.20874,-1.16891 7.79492,-5.10952 7.79492,-8.56446 0,-1.78217 -1.71885,-3.49535 -7.26563,-7.23828 -3.99651,-2.69682 -10.04355,-7.87187 -13.4375,-11.5 -3.39393,-3.62813 -8.03547,-9.73617 -10.31445,-13.57226 -2.27898,-3.83609 -5.25365,-10.16414 -6.60937,-14.0625 -1.35571,-3.89836 -3.02752,-10.99488 -3.7168,-15.76953 l -1.25391,-8.67969 -5.54101,-3.23828 c -3.04699,-1.78043 -8.31554,-6.20442 -11.70899,-9.83203 -3.39344,-3.6276 -7.50447,-9.23917 -9.13476,-12.46875 -1.63028,-3.22958 -3.73254,-8.72054 -4.67188,-12.20313 -0.93934,-3.4826 -1.81499,-6.48399 -1.94726,-6.66992 -0.13227,-0.18593 -1.62915,0.6887 -3.32617,1.94336 -2.27724,1.68364 -3.37852,1.98671 -4.20508,1.16015 -0.61595,-0.61595 -0.8586,-2.16559 -0.53711,-3.44335 0.3215,-1.27777 3.78099,-6.93477 7.6875,-12.57227 4.63383,-6.68711 7.74002,-10.25 8.93554,-10.25 2.3356,0 3.34419,2.57482 1.9961,5.09375 -0.57346,1.07152 -0.73203,2.44812 -0.35352,3.06055 0.95528,1.54569 31.21027,0.45433 42.9336,-1.54883 13.70703,-2.34211 25.88548,-6.13269 37.20507,-11.58203 10.90078,-5.24773 20.16622,-11.13166 26.40235,-16.76563 3.18976,-2.88176 3.65559,-3.77804 2.79883,-5.3789 -0.56539,-1.05644 -0.75477,-2.36175 -0.42188,-2.90039 0.3329,-0.53863 1.89201,-0.97852 3.4668,-0.97852 4.04341,0 10.82831,5.53798 13.98633,11.41797 2.57074,4.78653 2.8688,4.99052 11.08789,7.57226 4.64533,1.45917 9.88629,3.409 11.64648,4.33204 1.76019,0.92305 3.67269,1.67773 4.25,1.67773 0.57731,0 1.04883,-1.70462 1.04883,-3.78906 0,-5.13773 -2.45559,-14.20558 -5.44727,-20.10938 -1.35567,-2.67529 -5.41085,-7.9265 -9.00976,-11.66992 C 403.94406,320.68823 401,316.91494 401,316.04687 c 0,-0.86807 -1.14177,-3.596 -2.53711,-6.0625 -4.93155,-8.71731 -7.24023,-14.5899 -9.42969,-23.98437 -3.12385,-13.40375 -7.97761,-29.27102 -9.40625,-30.75391 -0.9435,-0.97932 -2.51671,-1.01246 -7.16797,-0.14648 -6.62335,1.23315 -15.82804,0.60248 -24.95898,-1.71094 -3.3,-0.83609 -9.68638,-3.29128 -14.19141,-5.45508 C 328.80357,245.76979 324.91582,244 324.66797,244 c -0.004,0 -0.008,-6e-4 -0.0117,0 z M 355.5,263.59961 c 5.14761,0.0424 8.25825,0.66174 11.75586,2.3418 4.74653,2.27997 9.74414,7.11926 9.74414,9.43554 0,1.50706 -2.0295,3.62852 -3.44922,3.60547 -0.5775,-0.009 -3.30078,-1.34505 -6.05078,-2.96875 -2.75,-1.6237 -6.83121,-3.2307 -9.07031,-3.57031 -2.23911,-0.33962 -5.97534,-0.1047 -8.30078,0.52148 C 344.39726,274.50821 342,273.6222 342,269.95898 c 0,-2.25298 0.73113,-3.30202 3.25,-4.66211 2.2577,-1.21906 5.38726,-1.73728 10.25,-1.69726 z m -91.39844,19.66211 c 1.09496,0.0632 2.04394,0.27978 2.76563,0.66601 2.36618,1.26634 2.87517,5.21836 0.88281,6.85157 -0.6875,0.56357 -3.14266,1.53164 -5.45703,2.15039 -2.31437,0.61874 -6.13937,2.59621 -8.5,4.39453 -2.36063,1.79832 -6.1231,5.94899 -8.35938,9.22265 -2.23629,3.27366 -4.71936,6.07637 -5.51953,6.23047 -0.80016,0.15409 -2.00949,-0.27121 -2.68554,-0.94726 -0.67606,-0.67606 -1.21912,-2.1518 -1.20704,-3.2793 0.0642,-5.99158 8.63116,-17.50497 16.42188,-22.07031 3.76924,-2.20877 8.37332,-3.4084 11.6582,-3.21875 z m 2.56836,34.06836 c 0.4388,0.0179 0.86294,0.0678 1.24805,0.15234 1.54044,0.33834 3.96555,1.83063 5.38867,3.31641 1.42312,1.48577 3.34033,4.50117 4.25977,6.70117 2.01909,4.8312 2.26663,12.07597 0.55468,16.20898 -0.69086,1.6679 -2.37262,3.54076 -3.73632,4.16211 -1.36371,0.62135 -2.57002,1.11138 -2.68165,1.08985 -0.11162,-0.0215 -1.55312,-0.63971 -3.20312,-1.37305 -6.24244,-2.77448 -10.5,-10.11566 -10.5,-18.10547 0,-5.21697 2.0655,-9.91245 5.06836,-11.51953 0.84493,-0.45219 2.28517,-0.6864 3.60156,-0.63281 z M 235.50781,357 c 3.37138,0 3.64868,0.16433 2.14258,1.26562 -1.60737,1.17534 -1.61543,1.49679 -0.12891,4.47657 1.74596,3.49987 5.94698,7.25781 8.11329,7.25781 1.9848,0 1.67163,1.76573 -0.52149,2.93945 -1.46574,0.78444 -3.48118,0.23431 -9.02734,-2.46484 C 232.15917,368.56356 227.93339,367 226.69531,367 223.5916,367 220,369.7128 220,372.05664 c 0,1.94313 -1.07803,2.5333 -2.33398,1.27734 C 217.29935,372.96732 217,371.36668 217,369.77734 c 0,-1.98374 1.01892,-3.82262 3.25,-5.86328 C 224.76031,359.7887 230.91569,357 235.50781,357 Z m -70.17969,23.22461 c 4.02623,-0.14403 9.44705,1.4856 13.04102,4.04101 4.31269,3.06644 8.63086,10.48205 8.63086,14.82227 0,6.11835 -3.52982,5.69051 -6.90625,-0.83789 -0.64003,-1.2375 -2.037,-2.25 -3.10352,-2.25 -2.05827,0 -4.99023,4.55347 -4.99023,7.75 0,1.74924 -1.75374,4.26766 -2.94922,4.23437 -0.3025,-0.008 -1.08034,-0.35069 -1.72656,-0.76171 -1.17816,-0.74936 -1.77121,-3.88876 -1.48047,-7.83399 0.0855,-1.16075 1.2878,-3.77879 2.67187,-5.81836 1.38409,-2.03957 2.29159,-4.07302 2.01563,-4.51953 -0.9859,-1.59522 -6.08766,-1.84394 -9.40234,-0.45898 C 159.2741,389.36679 157.13478,390 156.37695,390 155.58486,390 155,388.96769 155,387.57227 c 0,-3.00798 3.97804,-6.29045 8.69727,-7.17579 0.5089,-0.0955 1.05568,-0.15129 1.63085,-0.17187 z"
         style="display:inline;fill:#e5cdb9;fill-opacity:1"
         id="path3071" />
      <path
         d="m 360.70508,294 c 2.77118,0 4.28819,0.7741 6.85351,3.49414 5.61953,5.95844 7.01743,18.24749 2.66016,23.39258 -2.60072,3.07096 -6.20971,3.4723 -10.02734,1.11523 -4.48142,-2.7669 -7.14234,-8.9344 -7.16993,-16.61718 -0.0169,-4.69518 0.45947,-6.72697 2.05079,-8.75 C 356.61776,294.67 358.05094,294 360.70508,294 Z m 28.33984,27.08203 c 0.46019,-0.009 0.81431,0.4238 1.34961,1.35742 0.60755,1.05962 2.5531,3.42006 4.32227,5.24414 L 397.93359,331 h -3.74414 c -2.05929,0 -4.74442,-0.70046 -5.96679,-1.55664 -2.61665,-1.83278 -2.90743,-5.6313 -0.57813,-7.56445 0.62016,-0.51469 1.04247,-0.78975 1.40039,-0.79688 z"
         style="display:inline"
         id="path3074" />
      <path
         d="m 316.98047,305 c 1.44695,0 2.22237,1.08405 3.03711,4.25 1.91166,7.4285 4.00371,13.39682 5.33594,15.21875 1.20545,1.64856 1.50057,1.65809 4.41992,0.14844 3.97223,-2.05413 11.1168,-2.08292 14.00976,-0.0566 1.22551,0.85839 2.9008,2.86187 3.72266,4.45117 1.74607,3.37653 1.94324,9.66788 0.42969,13.67383 -1.44741,3.8309 -5.76282,8.27245 -9.6543,9.9375 -1.76984,0.75726 -3.62663,1.37695 -4.12695,1.37695 -0.50032,0 -1.43373,-0.63059 -2.07422,-1.40234 -0.93405,-1.12546 -0.16718,-2.38635 3.87695,-6.36719 4.62324,-4.55089 5.04297,-5.3508 5.04297,-9.61914 0,-4.04206 -0.34129,-4.80982 -2.59766,-5.83789 -2.24859,-1.02453 -3.32528,-0.80459 -7.98437,1.63476 -2.96133,1.55045 -6.03033,2.57072 -6.82031,2.26758 -2.04107,-0.78323 -7.43643,-12.53528 -8.74414,-19.04687 C 313.50582,308.91822 314.29047,305 316.98047,305 Z"
         style="display:inline"
         id="path3076" />
      <path
         d="m 371.0332,357.09961 c -0.72813,0.0431 -2.03365,0.54015 -3.34765,1.31445 -15.96167,9.40572 -29.42504,15.09846 -44.13868,18.66211 C 313.43694,379.52481 292.93169,382 282.75586,382 276.32159,382 275,382.27201 275,383.5957 c 0,0.8776 0.96246,2.94778 2.13867,4.59961 2.2616,3.17613 7.43725,6.79451 9.72656,6.80078 0.75082,0.002 2.89795,-1.6694 4.77149,-3.71484 l 3.40625,-3.71875 5.85547,3.21875 c 4.36662,2.40056 7.11128,3.21875 10.79492,3.21875 6.38245,0 15.13771,-1.56981 23.30664,-4.17773 10.30558,-3.29004 23.14931,-10.36202 29.21484,-16.0879 4.60417,-4.34636 5.75317,-6.13471 6.77735,-10.53906 0.67836,-2.91718 0.92913,-5.60798 0.55664,-5.98047 -0.0931,-0.0931 -0.27291,-0.1296 -0.51563,-0.11523 z"
         style="display:inline;fill:#ffffff;fill-opacity:1"
         id="path3081" />
      <path
         d="m 361.34961,127.35547 c -9.04902,0.54997 -18.85054,2.74431 -27.82031,6.31055 -4.96581,1.97432 -12.6293,5.92952 -17.0293,8.78906 -4.4,2.85953 -11.26413,8.2009 -15.25391,11.87109 -3.98978,3.67018 -7.70228,6.67383 -8.25,6.67383 -1.42332,0 -3.57184,-2.6055 -8.05078,-9.76367 -4.24565,-6.78531 -9.27876,-10.63226 -18.89648,-14.44141 -4.50138,-1.78279 -7.6253,-2.20426 -16.54883,-2.23242 -6.05,-0.0191 -13.475,0.56612 -16.5,1.29883 -7.96321,1.92884 -22.54466,9.33037 -29.60156,15.02734 -3.35547,2.70883 -8.41287,8.00402 -11.24024,11.76758 -2.82737,3.76355 -6.69013,9.99375 -8.58398,13.84375 -3.28328,6.67455 -6.82829,17.9601 -9.73633,31 -1.18053,5.29364 -1.64262,6.0356 -3.92383,6.30078 -1.42207,0.1653 -3.09872,-0.31772 -3.72656,-1.07422 -0.62783,-0.75649 -2.29696,-5.84197 -3.70898,-11.30078 -1.41202,-5.45881 -3.28553,-11.60411 -4.16407,-13.6543 -2.02251,-4.71976 -5.02841,-5.8449 -7.49023,-2.80468 -2.84678,3.51562 -4.09923,9.88477 -3.55078,18.03906 0.36479,5.42358 1.53821,10.13993 4.23047,17 2.04928,5.2217 3.78689,10.84414 3.86132,12.49414 0.10982,2.43471 -0.3074,3.06254 -2.21093,3.33203 -1.29002,0.18264 -4.59216,-0.63523 -7.33789,-1.81641 -2.74573,-1.18118 -8.08433,-2.40584 -11.86329,-2.72265 -7.70601,-0.64604 -14.90909,0.89457 -17.48437,3.74023 -2.29269,2.53339 -1.48399,6.20095 1.70117,7.72266 1.46821,0.70143 7.48496,1.90858 13.3711,2.68164 5.88614,0.77307 11.15415,1.85728 11.70703,2.41016 0.55289,0.55289 0.73774,2.07367 0.41015,3.3789 -0.36625,1.45924 -2.05191,3.05874 -4.37695,4.15235 -2.07964,0.97819 -7.38125,3.85138 -11.78125,6.38476 -9.72584,5.59983 -20.74973,16.4734 -25.24023,24.89844 -3.779516,7.09109 -6.223491,16.63589 -6.244145,24.37695 -0.0081,3.04695 0.674483,8.22195 1.517578,11.5 2.137077,8.30922 7.668167,15.98836 14.869137,20.64258 3.24967,2.10036 6.50342,3.81836 7.23047,3.81836 0.72705,0 2.03131,1.08573 2.90039,2.41211 1.49743,2.28537 1.38802,2.79572 -2.11718,9.75 -2.03434,4.03612 -4.81052,10.48789 -6.16797,14.33789 -1.78464,5.0616 -2.60862,9.91028 -2.97657,17.51172 -0.37752,7.79913 -0.0892,12.18698 1.11915,17 0.89588,3.56812 3.2454,9.79413 5.2207,13.83398 6.69835,13.69928 19.96266,24.26185 34.16992,27.21289 3.1601,0.65639 8.70142,0.93931 12.38477,0.63086 3.66658,-0.30705 9.5723,-1.72206 13.12304,-3.14258 3.55074,-1.42052 7.13077,-2.32291 7.95703,-2.00585 0.82625,0.31707 2.29747,2.33698 3.26758,4.48828 1.97889,4.38841 3.62734,6.12067 7.98828,8.39453 3.73288,1.94638 11.71267,2.03674 15.29688,0.17187 1.48519,-0.77274 3.73936,-2.51685 5.00781,-3.875 l 2.30664,-2.46875 -6.94336,-6.16992 c -6.02738,-5.35682 -11.7084,-11.71615 -16.51172,-18.48047 -1.30742,-1.84118 -1.52954,-1.81069 -7.2539,1 -4.95136,2.43114 -7.11488,2.8933 -13.4043,2.86719 -6.23316,-0.0259 -8.5975,-0.54664 -14.00195,-3.08203 -3.60641,-1.69187 -8.59643,-5.14329 -11.20313,-7.75 -2.58515,-2.58514 -6.16755,-7.67751 -7.95898,-11.31641 -2.79169,-5.67074 -3.311,-7.91765 -3.64063,-15.71875 -0.31468,-7.44743 -0.004,-10.10961 1.70703,-14.65039 2.35877,-6.25811 8.48454,-13.07511 14.52539,-16.16406 4.8686,-2.48952 13.73905,-3.37075 19.16602,-1.90234 2.25203,0.60935 6.07703,2.45195 8.5,4.09375 2.42296,1.64181 5.10633,2.99389 5.96094,3.0039 2.088,0.0245 7.32293,-5.70187 8.91797,-9.7539 1.86191,-4.73002 0.88254,-16.67526 -1.79493,-21.89844 -1.17591,-2.29396 -4.17217,-6.23412 -6.6582,-8.75586 C 186.03349,324.05249 184,321.7357 184,321.42773 c 0,-0.30796 0.46541,-1.42956 1.03516,-2.49414 0.56974,-1.06458 3.17618,-3.02067 5.79101,-4.3457 2.61483,-1.32504 6.68763,-4.5066 9.05078,-7.07031 2.36315,-2.56372 5.44535,-7.21684 6.84961,-10.33985 2.04016,-4.5372 2.634,-7.68715 2.95508,-15.67773 0.37226,-9.26457 0.1709,-10.62512 -2.73633,-18.5 -1.72591,-4.675 -3.20643,-10.075 -3.29101,-12 -0.1263,-2.87446 0.22759,-3.55393 1.98632,-3.80469 1.1952,-0.17041 6.01604,1.91558 10.90821,4.72071 4.821,2.76431 11.73123,6.05105 15.35742,7.30468 5.01463,1.73362 8.74845,2.27057 15.59375,2.24219 7.00678,-0.029 10.04429,-0.51211 13.7168,-2.17969 7.04462,-3.19877 14.26204,-10.48508 17.79882,-17.9707 2.75162,-5.82382 3.30275,-6.4106 5.76368,-6.12695 2.10313,0.2424 3.33242,1.45008 5.41406,5.31445 1.48136,2.75 4.04826,6.21426 5.70508,7.69727 1.65682,1.48302 4.69897,3.01183 6.75976,3.39843 2.79125,0.52364 4.6467,0.21764 7.27149,-1.19726 1.9379,-1.04462 4.11645,-3.02344 4.84179,-4.39844 0.86682,-1.6432 1.12318,-4.33953 0.75,-7.86914 C 314.9063,232.31225 315.94335,230 319.16602,230 c 1.05626,0 4.26305,1.75125 7.12695,3.89062 13.51353,10.09482 30.44741,15.14582 43.68945,13.03321 10.15347,-1.61986 17.0717,-5.2381 23.98242,-12.54492 5.98704,-6.33018 9.50006,-7.93578 10.67383,-4.87696 0.31706,0.82623 0.28797,2.65054 -0.0644,4.05469 -0.6622,2.63837 -8.80144,11.35544 -14.07422,15.07227 l -3,2.11523 2.72656,7.87695 c 1.49941,4.33298 4.09498,13.50391 5.76758,20.37891 1.6726,6.875 4.57268,15.73513 6.44531,19.68945 3.77822,7.97827 11.12794,18.31055 13.02539,18.31055 3.47252,0 8.49219,-10.34304 8.49219,-17.5 0,-2.75 -0.83249,-6.83285 -1.84961,-9.07227 -1.01712,-2.23942 -3.93271,-6.41676 -6.47851,-9.2832 C 413.08312,278.2781 411,275.76049 411,275.54883 c 0,-2.09296 2.20498,-4.12829 7.20898,-6.6543 3.27601,-1.65373 7.97944,-5.03022 10.45313,-7.50391 2.47368,-2.47368 5.69937,-7.06028 7.16797,-10.19335 C 438.19244,246.15747 438.5,244.28954 438.5,235 c 0,-9.48546 -0.2712,-11.05345 -2.81055,-16.22461 -3.04872,-6.20845 -8.58822,-11.57932 -15.2832,-14.82031 -2.33456,-1.13014 -4.81221,-2.73842 -5.50586,-3.57422 -1.04024,-1.25342 -0.71026,-2.63795 1.88477,-7.90039 1.73042,-3.5091 3.67507,-9.24621 4.32031,-12.74805 0.88176,-4.7855 0.89204,-7.95462 0.0449,-12.76367 -0.61987,-3.51909 -2.31234,-8.82272 -3.76172,-11.78516 -5.16294,-10.55266 -18.56123,-20.95684 -32.625,-25.33398 -3.34676,-1.04163 -9.94978,-2.16068 -14.67383,-2.48633 -2.79011,-0.19233 -5.72389,-0.19114 -8.74023,-0.008 z"
         style="display:inline;fill:#e9c318;fill-opacity:1"
         id="path3069" />
    </g>
  </g>
</svg>
